<?xml version="1.0" standalone="no"?>
<!DOCTYPE svg PUBLIC "-//W3C//DTD SVG 20010904//EN"
 "http://www.w3.org/TR/2001/REC-SVG-20010904/DTD/svg10.dtd">
<svg version="1.0" xmlns="http://www.w3.org/2000/svg"
 width="500.000000pt" height="500.000000pt" viewBox="0 0 500.000000 500.000000"
 preserveAspectRatio="xMidYMid meet">
<g transform="translate(0.000000,500.000000) scale(0.100000,-0.100000)"
fill="#000000" stroke="none">
<path d="M2444 3687 c-97 -80 -313 -247 -318 -247 -3 0 -6 20 -6 45 l0 45 -67
0 -68 0 3 -99 3 -99 -70 -48 -70 -49 -1 -99 c0 -101 4 -108 40 -65 7 9 261
205 444 344 87 66 163 120 170 119 10 -1 369 -274 561 -428 44 -35 82 -61 85
-56 3 4 3 48 1 96 l-3 89 -92 67 c-92 68 -210 159 -433 333 -67 52 -123 95
-125 94 -2 0 -26 -19 -54 -42z"/>
<path d="M2413 3363 l-62 -48 0 -257 -1 -258 -125 0 -125 0 0 155 c0 85 -2
155 -5 155 -5 0 -124 -93 -205 -160 l-35 -29 64 0 64 -1 -4 -312 -4 -311 64 0
64 -1 -2 192 -2 192 125 0 126 0 2 -192 3 -193 60 4 c33 2 61 4 63 5 1 2 1
251 0 555 l-3 552 -62 -48z"/>
<path d="M2522 2855 l3 -557 63 -2 62 -1 0 193 0 192 125 0 126 0 -1 -192 -2
-193 64 0 63 0 -3 313 -3 312 60 0 c34 0 61 3 60 8 0 6 -137 112 -220 171 -19
13 -19 10 -19 -143 l0 -156 -125 0 -125 0 0 258 0 257 -38 27 c-20 15 -49 37
-65 49 l-27 21 2 -557z"/>
<path d="M1600 1885 l0 -225 40 0 40 0 0 95 0 95 35 0 35 0 0 -95 0 -95 40 0
40 0 0 225 0 225 -40 0 -40 0 0 -95 0 -95 -35 0 -35 0 0 95 0 95 -40 0 -40 0
0 -225z"/>
<path d="M2046 2038 c-8 -40 -22 -107 -31 -148 -8 -41 -23 -110 -34 -152 l-18
-78 43 0 c39 0 44 3 44 23 0 57 10 67 60 67 50 0 60 -10 60 -67 0 -20 5 -23
40 -23 22 0 40 3 40 8 0 4 -21 105 -47 225 l-47 217 -47 0 -47 0 -16 -72z m83
-122 c18 -95 16 -106 -18 -106 -40 0 -41 3 -23 98 18 92 24 93 41 8z"/>
<path d="M2384 2083 c3 -16 25 -116 49 -223 l43 -195 40 -3 39 -3 48 218 c57
259 56 233 9 233 l-38 0 -18 -107 c-10 -60 -23 -130 -29 -158 l-10 -50 -13 60
c-6 33 -20 104 -29 158 l-17 97 -40 0 c-39 0 -40 -1 -34 -27z"/>
<path d="M2790 1885 l0 -225 110 0 110 0 0 38 0 37 -72 0 -73 0 0 55 0 55 55
0 55 0 3 38 3 37 -60 0 -61 0 0 61 0 61 73 -3 72 -4 3 38 3 37 -110 0 -111 0
0 -225z"/>
<path d="M3155 1885 l0 -225 40 0 40 0 -4 121 c-4 148 3 147 54 -6 l38 -115
39 0 38 0 0 225 0 225 -40 0 -40 0 -1 -127 -1 -128 -41 127 -42 128 -40 0 -40
0 0 -225z"/>
<path d="M2159 1498 c0 -2 -1 -43 -2 -93 -1 -83 1 -90 19 -93 17 -2 19 2 16
38 -3 32 -1 40 12 40 12 0 16 -10 16 -40 0 -31 4 -40 18 -40 15 0 17 11 17 95
0 84 -2 95 -17 95 -14 0 -18 -8 -18 -35 0 -24 -5 -35 -15 -35 -10 0 -15 11
-15 35 0 24 -5 35 -15 35 -8 0 -15 -1 -16 -2z"/>
<path d="M2296 1485 c-3 -9 -6 -50 -6 -91 0 -80 10 -91 71 -82 23 3 24 6 24
93 l0 90 -41 3 c-31 2 -43 -1 -48 -13z m62 -79 c-2 -34 -7 -61 -13 -61 -5 0
-11 27 -13 61 -2 50 0 61 13 61 13 0 15 -11 13 -61z"/>
<path d="M2430 1405 c0 -86 2 -95 19 -95 16 0 18 6 15 48 -5 49 8 37 20 -20
10 -47 33 -33 42 25 l8 52 4 -52 c2 -38 7 -53 18 -53 11 0 14 19 14 95 0 93 0
95 -24 95 -21 0 -24 -6 -30 -50 -4 -27 -11 -50 -15 -50 -5 0 -12 23 -16 50 -6
44 -10 50 -31 50 -24 0 -24 -1 -24 -95z"/>
<path d="M2610 1405 l0 -95 50 0 c38 0 50 4 50 15 0 10 -11 15 -35 15 -31 0
-35 3 -35 25 0 20 5 25 25 25 16 0 25 6 25 15 0 9 -9 15 -25 15 -20 0 -25 5
-25 25 0 22 4 25 35 25 24 0 35 5 35 15 0 11 -12 15 -50 15 l-50 0 0 -95z"/>
<path d="M2746 1484 c-17 -43 -7 -75 29 -90 19 -8 35 -21 35 -29 0 -23 -15
-25 -34 -3 -21 24 -39 12 -34 -23 3 -21 8 -24 48 -24 l45 0 0 50 c0 44 -2 50
-25 55 -28 7 -41 40 -16 40 9 0 16 -7 16 -15 0 -8 6 -15 14 -15 17 0 27 45 13
59 -17 17 -84 13 -91 -5z"/>
</g>
</svg>
