<?xml version="1.0" encoding="UTF-8"?>
<svg version="1.1" xmlns="http://www.w3.org/2000/svg" width="612" height="510">
<path d="M0 0 C201.96 0 403.92 0 612 0 C612 168.3 612 336.6 612 510 C410.04 510 208.08 510 0 510 C0 341.7 0 173.4 0 0 Z " fill="#FEF7E5" transform="translate(0,0)"/>
<path d="M0 0 C14.22112289 -0.16372773 28.44209906 -0.28659518 42.6639719 -0.3626852 C49.26793178 -0.39920619 55.87125821 -0.44873868 62.47485352 -0.52807617 C68.84857845 -0.60417212 75.22169439 -0.64599882 81.59583855 -0.6641407 C84.02676925 -0.67706802 86.45766688 -0.70231264 88.88833809 -0.7401104 C92.29551146 -0.79098265 95.70017355 -0.79792109 99.10766602 -0.79467773 C100.11108032 -0.81984467 101.11449463 -0.8450116 102.14831543 -0.87094116 C108.92143528 -0.80124828 108.92143528 -0.80124828 112.1223278 1.57664299 C113.99327087 3.48716736 113.99327087 3.48716736 115.55871487 5.39903164 C117.01202878 7.27816592 117.01202878 7.27816592 120 8 C120.495 9.485 120.495 9.485 121 11 C122.65948148 12.01187895 124.32580562 13.0126546 126 14 C126 14.66 126 15.32 126 16 C126.66 16 127.32 16 128 16 C129.36633849 17.63960619 130.73079313 19.28081726 132.0859375 20.9296875 C134.95348205 24.03131732 138.26213528 26.47717945 141.6328125 29.0078125 C144.14875066 31.1251862 145.9547037 33.43430287 148 36 C149.4805774 37.25733609 151.00193349 38.46843801 152.5625 39.625 C155.24272459 41.62273907 157.66950056 43.60784714 160 46 C161.34435664 47.2192383 162.69902459 48.42718048 164.0625 49.625 C165.10083984 50.54152344 165.10083984 50.54152344 166.16015625 51.4765625 C167.93096072 53.05963911 167.93096072 53.05963911 170 54 C170 54.66 170 55.32 170 56 C171.32 56.66 172.64 57.32 174 58 C174 58.66 174 59.32 174 60 C175.65 60.66 177.3 61.32 179 62 C179 62.66 179 63.32 179 64 C179.99 64.33 180.98 64.66 182 65 C182 65.66 182 66.32 182 67 C182.66 67 183.32 67 184 67 C184 67.66 184 68.32 184 69 C184.5775 69.28875 185.155 69.5775 185.75 69.875 C186.4925 70.24625 187.235 70.6175 188 71 C188.639375 71.268125 189.27875 71.53625 189.9375 71.8125 C192.76617595 73.44113161 194.76388878 75.6430179 197 78 C198.72969428 79.72969428 200.95973166 79.16549022 203.26806641 79.19018555 C218.21508072 79.17269064 233.32810083 78.50453652 248 75.5 C264.91275881 72.05804392 290.40704221 67.46901407 307 73 C308.73044612 73.17180266 310.46116058 73.34150394 312.19335938 73.49462891 C321.59255332 74.37608228 329.45074185 77.09387343 338 81 C338 81.66 338 82.32 338 83 C340.64 83.66 343.28 84.32 346 85 C346 85.66 346 86.32 346 87 C347.258125 87.20625 348.51625 87.4125 349.8125 87.625 C354.9131247 88.73523061 358.97405791 91.01332689 363.46875 93.6015625 C366.22800524 95.12596586 368.9572287 96.17762938 372 97 C371.0361991 105.35294118 371.0361991 105.35294118 369 108 C366.375 108.75 366.375 108.75 364 109 C364 109.99 364 110.98 364 112 C364.8353125 112.309375 364.8353125 112.309375 365.6875 112.625 C368.97012371 114.57683032 370.70673246 116.94230994 373 120 C373 120.66 373 121.32 373 122 C373.99 122.33 374.98 122.66 376 123 C377.68359375 124.671875 377.68359375 124.671875 379.4375 126.75 C380.0459375 127.46929687 380.654375 128.18859375 381.28125 128.9296875 C382.13203125 129.95449219 382.13203125 129.95449219 383 131 C383.804375 131.94875 384.60875 132.8975 385.4375 133.875 C387 136 387 136 387 138 C387.99 138.33 388.98 138.66 390 139 C389.62403791 141.78211944 389.32681541 143.5879284 387.5625 145.8125 C386 147 386 147 384 147 C384 147.66 384 148.32 384 149 C380.37 149 376.74 149 373 149 C373.639375 150.65 374.27875 152.3 374.9375 154 C376.67508055 158.74611224 377.62067 162.97387754 378 168 C378.66 168 379.32 168 380 168 C382.45029331 173.71735105 383.33266291 177.79029227 383 184 C378.20511856 185.19872036 372.64943215 186.03454017 367.94921875 184.19921875 C365.81818702 182.88814312 364.47445329 181.54266912 362.875 179.625 C362.37742187 179.03976563 361.87984375 178.45453125 361.3671875 177.8515625 C358.76282372 174.32450984 358 172.49495877 358 168 C357.34 168 356.68 168 356 168 C353.65205286 164.89465056 352.06983331 162.16699269 350.5625 158.5625 C348.28210431 153.36319783 345.75893107 149.17262071 341 146 C341 145.34 341 144.68 341 144 C339.68 144 338.36 144 337 144 C337.01160156 144.969375 337.02320313 145.93875 337.03515625 146.9375 C337.14981855 160.31926444 337.03133588 173.21317769 333.44897461 186.18237305 C331.98437601 191.60509146 331.42157898 196.82861581 331.17578125 202.42578125 C331 205 331 205 330 208 C326.33694766 208.74926071 323.57644848 209.2380014 320 208 C320.165 208.495 320.33 208.99 320.5 209.5 C321.45131847 214.25659235 321.54677229 219.35968313 320 224 C320.70125 224.165 321.4025 224.33 322.125 224.5 C327.17862399 227.13667339 330.95369844 232.69865131 333 238 C333.265625 241.27734375 333.265625 241.27734375 333.25 244.9375 C333.25515625 246.14277344 333.2603125 247.34804687 333.265625 248.58984375 C332.7171566 255.63121012 329.52029971 258.80632111 324.6796875 263.62109375 C322.57898431 266.59627572 322.68202734 268.43562902 323 272 C323.66 272.33 324.32 272.66 325 273 C325.05399736 274.45792884 325.09279177 275.91642712 325.125 277.375 C325.14820313 278.18710937 325.17140625 278.99921875 325.1953125 279.8359375 C325 282 325 282 323 284 C322.01 284 321.02 284 320 284 C320.06058594 284.75394043 320.12117188 285.50788086 320.18359375 286.28466797 C321.3387872 300.87787142 322.34863308 315.35741061 322 330 C321.34 330.33 320.68 330.66 320 331 C319.71125 331.763125 319.4225 332.52625 319.125 333.3125 C317.83657609 336.39040156 316.67956324 338.00946731 314 340 C311.1206006 339.92977075 309.5862058 339.41871843 307.25 337.75 C304.80717016 334.33003822 304.8558921 330.00010261 304.64282227 325.90942383 C304.56252525 324.42681816 304.56252525 324.42681816 304.48060608 322.91426086 C304.42642014 321.85587509 304.37223419 320.79748932 304.31640625 319.70703125 C304.19225582 317.44465056 304.06790035 315.1822811 303.94335938 312.91992188 C303.75199993 309.3698489 303.5628749 305.8196875 303.37768555 302.26928711 C303.19692545 298.83149335 303.00718637 295.39428155 302.81640625 291.95703125 C302.76424454 290.90876663 302.71208282 289.86050201 302.65834045 288.7804718 C302.19191893 278.08838538 302.19191893 278.08838538 299 268 C298.01 267.67 297.02 267.34 296 267 C296 266.34 296 265.68 296 265 C295.13375 264.62875 295.13375 264.62875 294.25 264.25 C291.67060021 262.81700012 289.93878408 261.21575324 288 259 C288 258.34 288 257.68 288 257 C287.34 257.33 286.68 257.66 286 258 C285.896875 259.216875 285.79375 260.43375 285.6875 261.6875 C285.30593514 265.67979896 284.0155585 267.36314722 281.2109375 270.28125 C278.81371806 273.68375501 278.53612079 277.95108774 278 282 C277.34 282 276.68 282 276 282 C277.26284372 287.28098283 279.26244432 291.76307972 281.78125 296.5703125 C283 299 283 299 283.91015625 301.3046875 C285.39226367 304.97011445 287.1623026 308.46914865 288.9375 312 C289.45860352 313.04800781 289.45860352 313.04800781 289.99023438 314.1171875 C291.47818265 317.08747973 292.96767828 319.94876355 294.7421875 322.76171875 C296.49328298 325.8777986 296.20618608 328.4948367 296 332 C291.80682689 332.34943109 290.23004556 331.58403645 287 329 C286.01 329 285.02 329 284 329 C283.17008463 330.65983074 282.34024648 332.31970012 281.51074219 333.97973633 C280.79003625 335.42032847 280.06801181 336.86026168 279.34472656 338.29956055 C277.54909623 341.87705103 275.77145613 345.46000367 274.05078125 349.07421875 C273.74664307 349.70505371 273.44250488 350.33588867 273.12915039 350.98583984 C272.29303938 352.72307467 271.4665656 354.46493808 270.640625 356.20703125 C268.09584828 360.53921066 268.09584828 360.53921066 265 362 C257.39166655 363.42898643 251.56770819 360.41174705 244.9375 357 C243.92888916 356.49815186 242.92027832 355.99630371 241.88110352 355.47924805 C239.85317823 354.46810891 237.82891336 353.44959127 235.80859375 352.42333984 C233.36151162 351.18320695 230.90502663 349.96828236 228.4375 348.76953125 C204.35337447 337.0300617 204.35337447 337.0300617 201 332 C200.38155095 326.27413464 201.86473686 322.41887232 204.5625 317.5 C205.2948843 316.10517079 206.02530415 314.7093086 206.75390625 313.3125 C207.12660645 312.60480469 207.49930664 311.89710938 207.88330078 311.16796875 C209.69058861 307.65928578 211.34770086 304.08365324 213 300.5 C213.30236572 299.84708984 213.60473145 299.19417969 213.91625977 298.52148438 C214.6128684 297.01525944 215.30676709 295.50778158 216 294 C214.57494141 293.54753906 214.57494141 293.54753906 213.12109375 293.0859375 C208.65572034 291.53227817 208.65572034 291.53227817 207 289 C207.43359375 286.8984375 207.43359375 286.8984375 208 285 C220.60738623 281.81077229 233.13524037 279.19635739 246 277.30859375 C250.03133242 276.68657176 254.01169874 275.84996584 258 275 C257.96003906 274.21367187 257.92007812 273.42734375 257.87890625 272.6171875 C258 270 258 270 259.9375 268.125 C262.72411899 265.25393801 262.4611544 262.9066306 263 259 C264.9375 255.5625 264.9375 255.5625 267 253 C267.66 253 268.32 253 269 253 C268.9175 251.96875 268.835 250.9375 268.75 249.875 C269.0126533 245.80387383 269.69413166 245.0658258 272.03515625 242 C274.34150087 237.21923707 274.18314297 231.21957475 274 226 C273.351129 224.32632481 272.6847913 222.65930199 272 221 C271.8046875 217.88671875 271.8046875 217.88671875 271.875 214.6875 C271.89304687 213.61886719 271.91109375 212.55023438 271.9296875 211.44921875 C271.96449219 210.23685547 271.96449219 210.23685547 272 209 C271.13375 208.731875 270.2675 208.46375 269.375 208.1875 C265.02484156 206.6568887 261.08326679 204.56420145 257 202.4375 C254.04814974 201.02307175 251.12374489 199.96687342 248 199 C248 198.34 248 197.68 248 197 C246.2675 196.62875 246.2675 196.62875 244.5 196.25 C239.93858296 195.12593652 236.13226443 193.21371309 232 191 C232 190.34 232 189.68 232 189 C228.04 188.01 228.04 188.01 224 187 C224 186.34 224 185.68 224 185 C223.12859375 184.87882813 222.2571875 184.75765625 221.359375 184.6328125 C211.69582895 182.81247011 203.7087302 177.8749868 196 172 C194.98421875 171.23816406 193.9684375 170.47632813 192.921875 169.69140625 C190.8960307 168.17202302 188.87471334 166.64657245 186.859375 165.11328125 C184.83904003 163.62011019 182.75817047 162.20725068 180.640625 160.85546875 C179.76921875 160.24316406 178.8978125 159.63085938 178 159 C178 158.34 178 157.68 178 157 C177.21625 156.690625 176.4325 156.38125 175.625 156.0625 C173 155 173 155 171 154 C171 153.34 171 152.68 171 152 C170.34 151.79375 169.68 151.5875 169 151.375 C163.18606002 148.71027751 158.41369075 144.58344809 154 140 C153.34 139.67 152.68 139.34 152 139 C152 138.34 152 137.68 152 137 C151.34 136.79375 150.68 136.5875 150 136.375 C146.60597459 134.81940502 144.00745934 132.80949318 141.0703125 130.53125 C138.18252004 128.39537331 135.1558936 126.70944237 132 125 C132 124.34 132 123.68 132 123 C131.34 123 130.68 123 130 123 C130 122.34 130 121.68 130 121 C128.824375 120.7215625 128.824375 120.7215625 127.625 120.4375 C122.56948069 118.4327251 118.1687768 115.49320428 114 112 C114 111.34 114 110.68 114 110 C113.278125 109.71125 112.55625 109.4225 111.8125 109.125 C107.90625 107.5625 107.90625 107.5625 104 106 C104 105.34 104 104.68 104 104 C102.7934375 103.5978125 102.7934375 103.5978125 101.5625 103.1875 C100.716875 102.795625 99.87125 102.40375 99 102 C98.67 101.01 98.34 100.02 98 99 C96.35 98.67 94.7 98.34 93 98 C93 97.34 93 96.68 93 96 C92.34 95.79375 91.68 95.5875 91 95.375 C87.62949037 93.83018309 85.04910234 91.85872925 82.13671875 89.58984375 C79.37008523 87.53130656 76.45336406 85.80001773 73.46875 84.078125 C72.9840625 83.72234375 72.499375 83.3665625 72 83 C72 82.34 72 81.68 72 81 C70.96746094 80.63261719 70.96746094 80.63261719 69.9140625 80.2578125 C66.50357795 78.78572667 63.47246883 76.90184994 60.375 74.875 C59.46065186 74.28102417 59.46065186 74.28102417 58.52783203 73.67504883 C44.31319919 64.3648908 44.31319919 64.3648908 39.90234375 59.85546875 C37.75407992 57.76013955 35.6299827 56.99028773 32.86328125 55.91796875 C30.04169152 54.52787737 27.94691658 52.45684129 25.6328125 50.35546875 C23.58392767 48.65460024 21.51237142 47.83745714 19 47 C18.01 46.34 17.02 45.68 16 45 C16 44.34 16 43.68 16 43 C15.278125 42.731875 14.55625 42.46375 13.8125 42.1875 C10.99946631 40.99977466 8.57702683 39.63421214 6 38 C4.4538501 37.20190918 4.4538501 37.20190918 2.87646484 36.38769531 C0 34 0 34 -0.68115234 30.42480469 C-0.68020788 29.00680654 -0.64661261 27.58857475 -0.5859375 26.171875 C-0.57744781 25.42286926 -0.56895813 24.67386353 -0.56021118 23.90216064 C-0.5266993 21.51662531 -0.45143886 19.13450788 -0.375 16.75 C-0.34489687 15.13025727 -0.31752165 13.51046137 -0.29296875 11.890625 C-0.22691723 7.92577225 -0.12342313 3.96346491 0 0 Z " fill="#F8B380" transform="translate(0,0)"/>
<path d="M0 0 C1.18062012 0.16016602 2.36124023 0.32033203 3.57763672 0.48535156 C30.24164167 4.13986817 56.84196728 8.67230628 83.14208984 14.38671875 C86.17059222 15.03660752 89.20341333 15.66179343 92.23828125 16.28125 C103.56881368 18.59620332 114.81077172 21.07358645 126 24 C127.32 24.33 128.64 24.66 130 25 C130 57.34 130 89.68 130 123 C125.78973312 122.29828885 122.93550426 121.74982915 119.14453125 120.22265625 C118.27505859 119.87396484 117.40558594 119.52527344 116.50976562 119.16601562 C115.61966797 118.80185547 114.72957031 118.43769531 113.8125 118.0625 C112.91080078 117.70220703 112.00910156 117.34191406 111.08007812 116.97070312 C107.46224828 115.5079469 104.25980493 114.17320329 101 112 C99.74247675 111.54473772 98.46909859 111.13227415 97.1875 110.75 C93.15504741 109.4557128 89.31773926 107.8839973 85.4375 106.1875 C80.46047208 104.02102902 75.46743661 102.00229924 70.375 100.125 C64.29601427 97.88091966 58.26332382 95.53966155 52.25 93.125 C50.99437256 92.62081543 50.99437256 92.62081543 49.71337891 92.10644531 C46.2807332 90.72604587 42.84937945 89.34245026 39.41796875 87.95898438 C22.53749021 81.1581239 5.57617244 74.75121936 -11.6328125 68.82714844 C-13.83761719 68.0567402 -16.02891012 67.25709952 -18.21875 66.4453125 C-28.43601154 62.71883744 -37.18469822 60.94812487 -47.40234375 65.546875 C-60.84910801 73.06897471 -71.91778789 84.74579279 -82.6875 95.5625 C-84.03424805 96.90344727 -84.03424805 96.90344727 -85.40820312 98.27148438 C-90.48144752 103.35216209 -95.34764012 108.53247333 -100 114 C-101.59868025 115.8381195 -103.20195311 117.67226903 -104.8125 119.5 C-105.56144531 120.3559375 -106.31039062 121.211875 -107.08203125 122.09375 C-109 124 -109 124 -111 124 C-111.33 124.99 -111.66 125.98 -112 127 C-112.66 127 -113.32 127 -114 127 C-114 127.66 -114 128.32 -114 129 C-115.80690089 130.82131765 -117.76759359 132.41158624 -119.734375 134.05859375 C-121.99032298 135.93803443 -121.99032298 135.93803443 -123.890625 137.91015625 C-134.09011793 148.00251165 -150.56931636 147.01085332 -164.0625 148.125 C-166.03458225 148.29467986 -168.00658839 148.46524682 -169.97851562 148.63671875 C-173.71728674 148.9606497 -177.45641436 149.27965569 -181.19604492 149.59350586 C-184.90042751 149.90504342 -188.60303296 150.23155056 -192.3046875 150.57421875 C-193.11462158 150.64705078 -193.92455566 150.71988281 -194.7590332 150.79492188 C-196.27786673 150.93391525 -197.79594997 151.08131711 -199.31323242 151.23632812 C-212.62257063 152.47665546 -220.880055 149.46777462 -231.98974609 142.26464844 C-234.79279365 140.50125442 -237.72789643 139.04410863 -240.6875 137.5625 C-253.15233119 130.85912101 -263.86963845 121.79930398 -274 112 C-274.60328125 111.443125 -275.2065625 110.88625 -275.828125 110.3125 C-277 109 -277 109 -277 107 C-277.66 106.79375 -278.32 106.5875 -279 106.375 C-284.49275904 103.85748544 -289.80021012 100.21916946 -293 95 C-293.3984375 92.74609375 -293.3984375 92.74609375 -293.375 90.4375 C-293.38273438 89.67308594 -293.39046875 88.90867187 -293.3984375 88.12109375 C-292.90752923 85.50772915 -292.09200691 84.59706869 -290 83 C-289.34 83 -288.68 83 -288 83 C-288 82.34 -288 81.68 -288 81 C-279.68511703 78.22837234 -270.91913416 79.77865729 -263 83 C-263 83.66 -263 84.32 -263 85 C-262.27425781 85.26039063 -261.54851562 85.52078125 -260.80078125 85.7890625 C-257.91877063 87.03512009 -255.70684671 88.51092764 -253.1875 90.375 C-243.13331207 97.53749671 -232.08817724 101.62199792 -220 104 C-219.84337891 103.13181641 -219.84337891 103.13181641 -219.68359375 102.24609375 C-218.88743131 99.63013146 -217.82058239 98.15151555 -216.0625 96.0625 C-215.27552734 95.08990234 -215.27552734 95.08990234 -214.47265625 94.09765625 C-206.75110739 87.54714797 -196.5038436 85.03652661 -187.00976562 82.12695312 C-169.39566489 76.51989212 -151.18571308 64.4813707 -138.2265625 51.1796875 C-137 50 -137 50 -135 50 C-135 49.34 -135 48.68 -135 48 C-133.625 46.375 -133.625 46.375 -132 45 C-131.34 45 -130.68 45 -130 45 C-129.67 44.01 -129.34 43.02 -129 42 C-128.34 42 -127.68 42 -127 42 C-126.731875 41.41734375 -126.46375 40.8346875 -126.1875 40.234375 C-124.98519009 37.97213399 -123.66174087 36.19423682 -122 34.25 C-121.484375 33.63640625 -120.96875 33.0228125 -120.4375 32.390625 C-119 31 -119 31 -117 31 C-116.7525 30.43667969 -116.505 29.87335938 -116.25 29.29296875 C-113.67992139 24.57848081 -109.68719102 20.85763128 -106 17 C-105.25621094 16.21753906 -104.51242187 15.43507813 -103.74609375 14.62890625 C-94.00862164 5.12210184 -81.36003468 -0.70047767 -68 -3 C-66.97648438 -3.18046875 -65.95296875 -3.3609375 -64.8984375 -3.546875 C-43.23680698 -6.06465971 -21.4445527 -2.95983826 0 0 Z " fill="#AF7545" transform="translate(482,313)"/>
<path d="M0 0 C0.495 1.98 0.495 1.98 1 4 C3.64 4.33 6.28 4.66 9 5 C9.495 6.485 9.495 6.485 10 8 C7.35541621 9.32229189 5.32238699 9.09677194 2.375 9.0625 C1.37210937 9.05347656 0.36921875 9.04445313 -0.6640625 9.03515625 C-1.43492187 9.02355469 -2.20578125 9.01195312 -3 9 C-4.43483195 14.19272516 -4.30727243 18.77091029 -3 24 C1.62 24 6.24 24 11 24 C11.495 22.515 11.495 22.515 12 21 C12.99 21 13.98 21 15 21 C15.66 20.34 16.32 19.68 17 19 C17.99 20.485 17.99 20.485 19 22 C19.66 22 20.32 22 21 22 C21.4021875 22.91265625 21.4021875 22.91265625 21.8125 23.84375 C24.45463319 29.75378476 27.23665374 35.58232032 30.125 41.375 C30.46144531 42.05240234 30.79789062 42.72980469 31.14453125 43.42773438 C32.57869337 46.28755567 34.01906133 49.03016252 35.73046875 51.73828125 C37.4875228 54.86854062 37.20713231 57.47875066 37 61 C32.80682689 61.34943109 31.23004556 60.58403645 28 58 C27.01 58 26.02 58 25 58 C24.17008463 59.65983074 23.34024648 61.31970012 22.51074219 62.97973633 C21.79003625 64.42032847 21.06801181 65.86026168 20.34472656 67.29956055 C18.54909623 70.87705103 16.77145613 74.46000367 15.05078125 78.07421875 C14.74664307 78.70505371 14.44250488 79.33588867 14.12915039 79.98583984 C13.29303938 81.72307467 12.4665656 83.46493808 11.640625 85.20703125 C9.09584828 89.53921066 9.09584828 89.53921066 6 91 C-1.60833345 92.42898643 -7.43229181 89.41174705 -14.0625 86 C-15.07111084 85.49815186 -16.07972168 84.99630371 -17.11889648 84.47924805 C-19.14682177 83.46810891 -21.17108664 82.44959127 -23.19140625 81.42333984 C-25.63848838 80.18320695 -28.09497337 78.96828236 -30.5625 77.76953125 C-54.64662553 66.0300617 -54.64662553 66.0300617 -58 61 C-58.61844905 55.27413464 -57.13526314 51.41887232 -54.4375 46.5 C-53.7051157 45.10517079 -52.97469585 43.7093086 -52.24609375 42.3125 C-51.87339355 41.60480469 -51.50069336 40.89710938 -51.11669922 40.16796875 C-49.30941139 36.65928578 -47.65229914 33.08365324 -46 29.5 C-45.69763428 28.84708984 -45.39526855 28.19417969 -45.08374023 27.52148438 C-44.3871316 26.01525944 -43.69323291 24.50778158 -43 23 C-43.95003906 22.69835937 -44.90007812 22.39671875 -45.87890625 22.0859375 C-50.34427966 20.53227817 -50.34427966 20.53227817 -52 18 C-51.56640625 15.8984375 -51.56640625 15.8984375 -51 14 C-38.39261377 10.81077229 -25.86475963 8.19635739 -13 6.30859375 C-8.96866758 5.68657176 -4.98830126 4.84996584 -1 4 C-0.67 2.68 -0.34 1.36 0 0 Z " fill="#F1572E" transform="translate(259,271)"/>
<path d="M0 0 C4.68850012 0.69459261 7.50344691 3.14361993 10.4296875 6.7734375 C14.80926806 13.42941022 14.89155563 20.22938879 14 28 C12.51481711 33.10390262 9.3713005 35.94918687 5.6796875 39.62109375 C3.57898431 42.59627572 3.68202734 44.43562902 4 48 C4.99 48.495 4.99 48.495 6 49 C6.05399736 50.45792884 6.09279177 51.91642712 6.125 53.375 C6.14820313 54.18710937 6.17140625 54.99921875 6.1953125 55.8359375 C6 58 6 58 4 60 C3.01 60 2.02 60 1 60 C1.09087891 61.13091064 1.09087891 61.13091064 1.18359375 62.28466797 C2.3387872 76.87787142 3.34863308 91.35741061 3 106 C2.01 106.495 2.01 106.495 1 107 C0.71125 107.763125 0.4225 108.52625 0.125 109.3125 C-1.16342391 112.39040156 -2.32043676 114.00946731 -5 116 C-7.8793994 115.92977075 -9.4137942 115.41871843 -11.75 113.75 C-14.19282984 110.33003822 -14.1441079 106.00010261 -14.35717773 101.90942383 C-14.41070908 100.92102005 -14.46424042 99.93261627 -14.51939392 98.91426086 C-14.57357986 97.85587509 -14.62776581 96.79748932 -14.68359375 95.70703125 C-14.80774418 93.44465056 -14.93209965 91.1822811 -15.05664062 88.91992188 C-15.24800007 85.3698489 -15.4371251 81.8196875 -15.62231445 78.26928711 C-15.80307455 74.83149335 -15.99281363 71.39428155 -16.18359375 67.95703125 C-16.23575546 66.90876663 -16.28791718 65.86050201 -16.34165955 64.7804718 C-16.80808107 54.08838538 -16.80808107 54.08838538 -20 44 C-20.99 43.67 -21.98 43.34 -23 43 C-23 42.34 -23 41.68 -23 41 C-23.556875 40.79375 -24.11375 40.5875 -24.6875 40.375 C-29.10341857 37.74931869 -31.46365107 34.35364254 -33.3125 29.6875 C-34.50011056 23.31758882 -34.30321589 17.35317746 -33 11 C-32.34 11 -31.68 11 -31 11 C-30.67 9.68 -30.34 8.36 -30 7 C-28.54257537 6.91903197 -27.08387193 6.86082226 -25.625 6.8125 C-24.81289063 6.77769531 -24.00078125 6.74289063 -23.1640625 6.70703125 C-22.44992187 6.80371094 -21.73578125 6.90039062 -21 7 C-18.80423213 10.2936518 -18.63712818 11.18984584 -19 15 C-20 17.8125 -20 17.8125 -21 20 C-20.38125 19.814375 -19.7625 19.62875 -19.125 19.4375 C-17 19 -17 19 -15 20 C-9.67111685 20.60720236 -9.67111685 20.60720236 -5.125 18.5 C-4.75375 18.005 -4.3825 17.51 -4 17 C-3.34 17 -2.68 17 -2 17 C-2.28617187 16.03900391 -2.28617187 16.03900391 -2.578125 15.05859375 C-4.61454456 7.11418952 -4.61454456 7.11418952 -2.125 2.875 C-1.073125 1.451875 -1.073125 1.451875 0 0 Z " fill="#739C98" transform="translate(319,224)"/>
<path d="M0 0 C1.18851562 0.07992187 2.37703125 0.15984375 3.6015625 0.2421875 C6.73742101 0.46764138 9.86849824 0.72120175 13 1 C13.495 2.485 13.495 2.485 14 4 C16.74205389 5.16537291 19.38244749 5.90570926 22.328125 6.35546875 C24.67486144 6.73775969 26.78492659 7.13107893 29 8 C30.5 10.8125 30.5 10.8125 31 14 C31.17329834 14.68215576 31.34659668 15.36431152 31.52514648 16.06713867 C32.22904315 20.41465054 32.12188308 24.71673737 32.09765625 29.11328125 C32.0962413 30.08283249 32.09482635 31.05238373 32.09336853 32.05131531 C32.08778513 35.13840867 32.07523564 38.22542867 32.0625 41.3125 C32.05748286 43.40950416 32.05292032 45.50650946 32.04882812 47.60351562 C32.03782112 52.73570521 32.02056788 57.86784018 32 63 C28.97527023 62.27827525 26.27895037 61.33658519 23.4375 60.0625 C22.67308594 59.72347656 21.90867187 59.38445312 21.12109375 59.03515625 C19 58 19 58 16 56 C16 55.34 16 54.68 16 54 C15.29488281 53.88785156 14.58976562 53.77570313 13.86328125 53.66015625 C10.72610488 52.93685092 8.09872094 51.80542309 5.1875 50.4375 C4.21167969 49.98246094 3.23585938 49.52742188 2.23046875 49.05859375 C1.12638672 48.53458984 1.12638672 48.53458984 0 48 C0 47.34 0 46.68 0 46 C-0.85078125 45.85691406 -0.85078125 45.85691406 -1.71875 45.7109375 C-4.52324058 44.8369353 -6.22349382 43.47271221 -8.5 41.625 C-9.2528125 41.01914063 -10.005625 40.41328125 -10.78125 39.7890625 C-11.5134375 39.19867188 -12.245625 38.60828125 -13 38 C-13.7528125 37.47148437 -14.505625 36.94296875 -15.28125 36.3984375 C-15.8484375 35.93695313 -16.415625 35.47546875 -17 35 C-17 34.34 -17 33.68 -17 33 C-17.598125 32.7525 -18.19625 32.505 -18.8125 32.25 C-21.47957184 30.72595895 -22.56182071 29.73254065 -24 27 C-24.84757878 20.74910647 -23.49183659 17.34415941 -20.22265625 12.03515625 C-18.87831008 9.95944414 -18.87831008 9.95944414 -18.0625 7.25 C-14.18778482 -0.95527921 -8.0079932 -0.62530929 0 0 Z " fill="#FEF6E4" transform="translate(280,133)"/>
<path d="M0 0 C1.32 0.33 2.64 0.66 4 1 C4 1.66 4 2.32 4 3 C5.98 3.66 7.96 4.32 10 5 C9.98839844 5.85722656 9.97679687 6.71445313 9.96484375 7.59765625 C9.84628552 14.9493765 9.84628552 14.9493765 10.5625 22.25 C10.706875 23.1575 10.85125 24.065 11 25 C10.505 25.495 10.505 25.495 10 26 C9.9175 27.216875 9.835 28.43375 9.75 29.6875 C9.32145232 33.65683507 8.00098531 35.37831009 5.2109375 38.28125 C2.81371806 41.68375501 2.53612079 45.95108774 2 50 C1.34 50 0.68 50 0 50 C0.309375 51.0725 0.61875 52.145 0.9375 53.25 C1.66812096 55.82866222 2.37482904 58.39512102 3 61 C2.01 61.495 2.01 61.495 1 62 C0.34 61.34 -0.32 60.68 -1 60 C-3.10820797 60.3185177 -3.10820797 60.3185177 -5 61 C-5 61.99 -5 62.98 -5 64 C-7.10353495 64.0810206 -9.20795952 64.13919907 -11.3125 64.1875 C-12.48425781 64.22230469 -13.65601563 64.25710938 -14.86328125 64.29296875 C-18 64 -18 64 -19.85546875 62.61328125 C-22.37786606 59.0578202 -22.22349715 56.32094495 -22 52 C-21.25 49.625 -21.25 49.625 -20 48 C-17.04824918 47.00960992 -14.34656717 46.89196225 -11.25 46.9375 C-10.45078125 46.94652344 -9.6515625 46.95554687 -8.828125 46.96484375 C-8.22484375 46.97644531 -7.6215625 46.98804688 -7 47 C-7.33 46.34 -7.66 45.68 -8 45 C-9.8289141 44.50176522 -9.8289141 44.50176522 -11.9375 44.1875 C-14.12109375 43.70703125 -14.12109375 43.70703125 -16 43 C-17.5 40.375 -17.5 40.375 -18 38 C-17.0409375 37.2265625 -17.0409375 37.2265625 -16.0625 36.4375 C-13.42097106 33.31569307 -13.55239005 31.00482784 -13 27 C-11.0625 23.5625 -11.0625 23.5625 -9 21 C-8.34 21 -7.68 21 -7 21 C-7.0825 19.96875 -7.165 18.9375 -7.25 17.875 C-6.95184411 13.25358374 -6.23403765 11.31488859 -3 8 C-0.15164152 7.48359913 2.07404023 7.70740402 5 8 C5 7.34 5 6.68 5 6 C3.35 6 1.7 6 0 6 C0 4.02 0 2.04 0 0 Z " fill="#F1724F" transform="translate(276,232)"/>
<path d="M0 0 C0.33 0 0.66 0 1 0 C1.93094764 14.72966048 1.93094764 14.72966048 -2.296875 20.37890625 C-5.60622625 23.52886214 -10.28008578 27 -15 27 C-15 27.99 -15 28.98 -15 30 C-9.78407302 27.86362904 -5.23594655 25.82601624 -1 22 C1.29013653 25.4352048 1.17842973 26.985331 1 31 C0.34 31 -0.32 31 -1 31 C-1.33 31.99 -1.66 32.98 -2 34 C-6.1608322 36.0804161 -11.63343547 35.2937969 -16 34 C-16.99 34 -17.98 34 -19 34 C-18.01 30.7 -17.02 27.4 -16 24 C-16.66 23.67 -17.32 23.34 -18 23 C-18.33 22.67 -18.66 22.34 -19 22 C-21.67058851 21.85884839 -24.32432238 21.95752893 -27 22 C-27.33 22.99 -27.66 23.98 -28 25 C-31.34097385 24.40339753 -33.54300129 23.36924875 -36 21 C-36 19.68 -36 18.36 -36 17 C-27.42857143 16.71428571 -27.42857143 16.71428571 -24 19 C-25.55901182 16.85420839 -25.55901182 16.85420839 -28 15 C-31.87209322 14.65427739 -35.28983366 14.81274677 -39 16 C-40.44207941 13.11584117 -40.09394887 10.58278472 -40.0625 7.375 C-40.05347656 6.18648437 -40.04445313 4.99796875 -40.03515625 3.7734375 C-40.02355469 2.85820312 -40.01195312 1.94296875 -40 1 C-32.64633234 1.82509595 -25.65955238 3.8785344 -18.53710938 5.828125 C-13.01129816 7.31039389 -7.69783432 8.45670233 -2 9 C-1.34 6.03 -0.68 3.06 0 0 Z " fill="#7AA19B" transform="translate(316,210)"/>
<path d="M0 0 C5.75 0.875 5.75 0.875 8 2 C8 2.66 8 3.32 8 4 C9.65 3.67 11.3 3.34 13 3 C12.11879159 10.39162872 10.88142849 14.26432152 6 20 C5.01782239 23.29552995 4.45095713 26.59426408 4 30 C3.34 30 2.68 30 2 30 C2.4640625 31.60875 2.4640625 31.60875 2.9375 33.25 C3.66812096 35.82866222 4.37482904 38.39512102 5 41 C4.01 41.495 4.01 41.495 3 42 C2.34 41.34 1.68 40.68 1 40 C-1.10820797 40.3185177 -1.10820797 40.3185177 -3 41 C-3 41.99 -3 42.98 -3 44 C-5.10353495 44.0810206 -7.20795952 44.13919907 -9.3125 44.1875 C-10.48425781 44.22230469 -11.65601563 44.25710938 -12.86328125 44.29296875 C-16 44 -16 44 -17.85546875 42.61328125 C-20.37786606 39.0578202 -20.22349715 36.32094495 -20 32 C-19.25 29.625 -19.25 29.625 -18 28 C-15.04824918 27.00960992 -12.34656717 26.89196225 -9.25 26.9375 C-8.45078125 26.94652344 -7.6515625 26.95554687 -6.828125 26.96484375 C-6.22484375 26.97644531 -5.6215625 26.98804688 -5 27 C-4.67 26.34 -4.34 25.68 -4 25 C-3.54625 25.495 -3.0925 25.99 -2.625 26.5 C-1.12364481 28.22609337 -1.12364481 28.22609337 1 28 C1.33 25.69 1.66 23.38 2 21 C1.0925 21.061875 0.185 21.12375 -0.75 21.1875 C-4.29238832 20.98313144 -5.52653696 20.47346304 -8 18 C-8 17.34 -8 16.68 -8 16 C-7.236875 16.33 -6.47375 16.66 -5.6875 17 C-3.00930865 18.17436686 -3.00930865 18.17436686 0 18 C-0.66 17.34 -1.32 16.68 -2 16 C1 15 1 15 3.1875 15.9375 C4.0846875 16.4634375 4.0846875 16.4634375 5 17 C7.29379749 13.55930376 8 12.27709699 8 8 C5.525 7.505 5.525 7.505 3 7 C3 6.34 3 5.68 3 5 C3.99 5 4.98 5 6 5 C6 4.34 6 3.68 6 3 C4.02 2.34 2.04 1.68 0 1 C0 0.67 0 0.34 0 0 Z " fill="#F16943" transform="translate(274,252)"/>
<path d="M0 0 C-1 3 -1 3 -2.63671875 4.1328125 C-6.76689322 6.13103025 -10.37081861 7.53708186 -15 8 C-15.33 8.99 -15.66 9.98 -16 11 C-18.00051454 11.66683818 -20.00541468 12.32178048 -22.0234375 12.93359375 C-25.73593171 14.26366057 -29.17573426 15.96496079 -32.6875 17.75 C-33.37416748 18.09861084 -34.06083496 18.44722168 -34.76831055 18.80639648 C-36.84758312 19.86699269 -38.92400827 20.93299876 -41 22 C-48.87249946 26.02880882 -56.71708841 29.87353426 -65 33 C-65.84046875 33.35191406 -66.6809375 33.70382812 -67.546875 34.06640625 C-74.54748239 36.73065015 -84.25179249 37.34369703 -91.3125 34.8125 C-95.26453444 32.14717445 -98.45402767 29.88990423 -99.8125 25.1875 C-99.874375 24.465625 -99.93625 23.74375 -100 23 C-99.34 23 -98.68 23 -98 23 C-95 26.46153846 -95 26.46153846 -95 29 C-91.91526116 30.77965702 -89.56067048 31.28436571 -86.015625 31.4140625 C-84.61376953 31.47207031 -84.61376953 31.47207031 -83.18359375 31.53125 C-82.21550781 31.5621875 -81.24742187 31.593125 -80.25 31.625 C-79.26644531 31.66367187 -78.28289062 31.70234375 -77.26953125 31.7421875 C-74.84653963 31.83628426 -72.42355204 31.92192328 -70 32 C-70 31.34 -70 30.68 -70 30 C-67.8765984 29.16260219 -65.7512272 28.33019717 -63.625 27.5 C-61.84996094 26.80390625 -61.84996094 26.80390625 -60.0390625 26.09375 C-57 25 -57 25 -55 25 C-55 24.34 -55 23.68 -55 23 C-54.16339844 22.731875 -53.32679688 22.46375 -52.46484375 22.1875 C-44.85968214 19.62717981 -37.93437224 16.60719431 -30.97631836 12.59179688 C-27.5983994 10.67860674 -25.99483743 10 -22 10 C-22 9.34 -22 8.68 -22 8 C-21.41992188 7.74605469 -20.83984375 7.49210937 -20.2421875 7.23046875 C-16.6798238 5.66091247 -13.15733714 4.08015288 -9.6875 2.3125 C-6.24231695 0.62996874 -3.82141606 0 0 0 Z " fill="#915F36" transform="translate(363,399)"/>
<path d="M0 0 C1.95440674 0.73974609 1.95440674 0.73974609 4 2 C4.59490967 3.86572266 4.59490967 3.86572266 4.72949219 6.1640625 C4.78925232 7.02676758 4.84901245 7.88947266 4.9105835 8.77832031 C4.95555969 9.71772461 5.00053589 10.65712891 5.046875 11.625 C5.10780334 12.60049805 5.16873169 13.57599609 5.23150635 14.58105469 C5.35780105 16.65865414 5.47485525 18.73683233 5.58349609 20.81542969 C5.7464999 23.93305679 5.93484919 27.04823078 6.12890625 30.1640625 C6.84426394 42.12014095 7.17011317 54.0240325 7 66 C4.525 66.495 4.525 66.495 2 67 C1.47646434 59.39384539 0.95476596 51.78756664 0.43539429 44.18112659 C0.19415631 40.64892761 -0.0477075 37.11677383 -0.29101562 33.5847168 C-0.57088875 29.52144869 -0.84801441 25.45799722 -1.125 21.39453125 C-1.21249512 20.1297847 -1.29999023 18.86503815 -1.39013672 17.56196594 C-1.47021973 16.38111923 -1.55030273 15.20027252 -1.6328125 13.98364258 C-1.70387207 12.94661697 -1.77493164 11.90959137 -1.84814453 10.84114075 C-1.89825684 9.9035643 -1.94836914 8.96598785 -2 8 C-2.04882324 7.11346237 -2.09764648 6.22692474 -2.14794922 5.31352234 C-2 3 -2 3 0 0 Z " fill="#668D88" transform="translate(315,264)"/>
<path d="M0 0 C0.33 0 0.66 0 1 0 C1 3.96 1 7.92 1 12 C-0.959375 11.9175 -2.91875 11.835 -4.9375 11.75 C-12.65460363 11.7331688 -17.68335434 13.7889029 -24 18 C-24.515625 17.505 -25.03125 17.01 -25.5625 16.5 C-29.40593736 14.13480778 -33.12061652 14.61448544 -37.4375 15.5 C-37.953125 15.665 -38.46875 15.83 -39 16 C-40.44207941 13.11584117 -40.09394887 10.58278472 -40.0625 7.375 C-40.05347656 6.18648437 -40.04445313 4.99796875 -40.03515625 3.7734375 C-40.02355469 2.85820312 -40.01195312 1.94296875 -40 1 C-32.64633234 1.82509595 -25.65955238 3.8785344 -18.53710938 5.828125 C-13.01129816 7.31039389 -7.69783432 8.45670233 -2 9 C-1.34 6.03 -0.68 3.06 0 0 Z " fill="#FCF3E0" transform="translate(316,210)"/>
<path d="M0 0 C3.79143377 0.59793221 6.73436387 1.71654613 10.125 3.5 C12.76884242 4.88219118 15.1635506 6.05451687 18 7 C18 7.66 18 8.32 18 9 C19.08474609 9.18755859 19.08474609 9.18755859 20.19140625 9.37890625 C22.94959479 9.98885337 25.3357862 10.84831492 27.9375 11.9375 C29.61942648 12.63852483 31.30727902 13.32545705 33 14 C33.87527344 14.36609375 34.75054687 14.7321875 35.65234375 15.109375 C40.33818004 16.35601523 44.79498282 16.33778598 49.625 16.3125 C50.65955322 16.31121094 51.69410645 16.30992187 52.76000977 16.30859375 C62.40057421 16.19388487 71.90539644 15.23848026 81.46923828 14.06762695 C87.70807717 13.30618674 93.71390563 12.84001457 100 13 C99.67 13.66 99.34 14.32 99 15 C96.13358027 15.58932849 93.33325649 16.04868114 90.4375 16.4375 C89.55070557 16.56165283 88.66391113 16.68580566 87.75024414 16.8137207 C85.83412889 17.07899315 83.91734394 17.33946235 82 17.59570312 C78.99744287 18.00034461 75.99896487 18.42900407 73 18.859375 C37.78821453 23.77357223 37.78821453 23.77357223 25 15 C23.78847936 14.4199386 22.56022724 13.87242356 21.3125 13.375 C15.93480743 11.14275025 10.90086555 8.75573757 6.1875 5.3125 C3.19604907 2.89805448 3.19604907 2.89805448 0 2 C0 1.34 0 0.68 0 0 Z " fill="#8F5F35" transform="translate(225,434)"/>
<path d="M0 0 C2.49361571 1.20381448 4.68143083 2.45428722 7 4 C8.65549531 4.38499891 10.3222433 4.72793135 12 5 C12.31785906 8.49644963 12.39644605 10.397402 10.4375 13.375 C7.1005787 15.5996142 4.93094707 15.50030235 1 15 C-1.10358381 13.45737187 -1.84054159 12.31891683 -3 10 C-3.46537396 3.60110803 -3.46537396 3.60110803 -1.5 1.0625 C-1.005 0.711875 -0.51 0.36125 0 0 Z " fill="#F9ECD9" transform="translate(257,281)"/>
<path d="M0 0 C0.66 0 1.32 0 2 0 C2.06058594 0.73605469 2.12117188 1.47210938 2.18359375 2.23046875 C2.26738281 3.20628906 2.35117187 4.18210938 2.4375 5.1875 C2.51871094 6.15042969 2.59992188 7.11335937 2.68359375 8.10546875 C2.97666151 10.78649602 3.42703754 13.3662986 4 16 C4.515625 15.67 5.03125 15.34 5.5625 15 C8.88247788 13.63795779 11.44186248 13.68230915 15 14 C17.4375 15.375 17.4375 15.375 19 17 C19 17.66 19 18.32 19 19 C13.06 18.01 13.06 18.01 7 17 C9.00042201 22.10847485 9.00042201 22.10847485 13 25 C12.67 25.66 12.34 26.32 12 27 C7.125 25.25 7.125 25.25 6 23 C5.01 22.67 4.02 22.34 3 22 C3 23.98 3 25.96 3 28 C4.65 28 6.3 28 8 28 C8 28.66 8 29.32 8 30 C5.69 30.33 3.38 30.66 1 31 C1.02320313 29.97519531 1.04640625 28.95039063 1.0703125 27.89453125 C1.08908036 26.53386149 1.10727947 25.1731838 1.125 23.8125 C1.14175781 23.13896484 1.15851563 22.46542969 1.17578125 21.77148438 C1.21599017 17.65006979 0.63194407 14.74648638 -1 11 C-1.23046875 8.61328125 -1.23046875 8.61328125 -1.1875 6.3125 C-1.18105469 5.54550781 -1.17460937 4.77851563 -1.16796875 3.98828125 C-1 2 -1 2 0 0 Z " fill="#EF603A" transform="translate(273,210)"/>
<path d="M0 0 C0 0.66 0 1.32 0 2 C3.3 2.66 6.6 3.32 10 4 C11 9 11 9 9.0625 12.3125 C8.381875 13.199375 7.70125 14.08625 7 15 C4.50638429 13.79618552 2.31856917 12.54571278 0 11 C-1.9896995 10.60986284 -3.99019869 10.26797351 -6 10 C-6.36567164 3.539801 -6.36567164 3.539801 -4.6875 1.0625 C-3 0 -3 0 0 0 Z " fill="#F9F1DE" transform="translate(272,255)"/>
<path d="M0 0 C3.06475613 1.02158538 3.9927804 1.59465419 6 4 C9.25663715 10.79471208 10.21460901 17.66092755 8 24.9375 C5.34956592 31.29351728 0.47537056 36.45873154 -5.3125 40.0625 C-8 41 -8 41 -11 41 C-11 40.01 -11 39.02 -11 38 C-9.730447 37.35165346 -8.45930294 36.70642185 -7.1875 36.0625 C-6.12595703 35.52302734 -6.12595703 35.52302734 -5.04296875 34.97265625 C-3 34 -3 34 0 33 C1.10636395 30.60931266 1.10636395 30.60931266 2 28 C2.66 27.01 3.32 26.02 4 25 C4.25066855 22.40587197 4.37976453 19.96928763 4.375 17.375 C4.37628906 16.66021484 4.37757813 15.94542969 4.37890625 15.20898438 C4.26440963 9.46854016 3.06309778 4.92283571 0 0 Z " fill="#E95C38" transform="translate(312,199)"/>
<path d="M0 0 C2.92879371 0.62759865 5.36095629 1.58622659 8 3 C8 3.66 8 4.32 8 5 C8.71542969 5.11214844 9.43085938 5.22429687 10.16796875 5.33984375 C13.19115998 6.04456005 15.56322688 7.13287798 18.3125 8.5625 C19.19550781 9.01753906 20.07851563 9.47257812 20.98828125 9.94140625 C21.65214844 10.29074219 22.31601562 10.64007813 23 11 C23 11.66 23 12.32 23 13 C24.98 13.66 26.96 14.32 29 15 C29 15.66 29 16.32 29 17 C29.56589844 17.10570313 30.13179688 17.21140625 30.71484375 17.3203125 C33.38377821 18.11414942 35.26278022 19.3107236 37.5625 20.875 C38.32691406 21.38804688 39.09132813 21.90109375 39.87890625 22.4296875 C41.79501817 23.8482455 43.45142801 25.18920975 45 27 C45 27.66 45 28.32 45 29 C42.0280615 27.87548273 39.66559313 26.77706209 37 25 C37 24.34 37 23.68 37 23 C36.01 23 35.02 23 34 23 C34 22.34 34 21.68 34 21 C32.35 20.67 30.7 20.34 29 20 C29 19.34 29 18.68 29 18 C28.05125 17.855625 27.1025 17.71125 26.125 17.5625 C23 17 23 17 21 16 C21 15.34 21 14.68 21 14 C20.27683594 13.72929688 19.55367188 13.45859375 18.80859375 13.1796875 C14.25743963 11.26807617 10.18335646 8.60208775 6 6 C5.34644531 5.60039063 4.69289063 5.20078125 4.01953125 4.7890625 C2.64086581 3.91798172 1.31288296 2.96738744 0 2 C0 1.34 0 0.68 0 0 Z " fill="#EBA472" transform="translate(315,99)"/>
<path d="M0 0 C3.72433382 1.2125738 7.37802806 2.50859979 11 4 C11.33 6.97 11.66 9.94 12 13 C10.68 13.33 9.36 13.66 8 14 C8 13.34 8 12.68 8 12 C4.7 11.01 1.4 10.02 -2 9 C-2.125 5.625 -2.125 5.625 -2 2 C-1.34 1.34 -0.68 0.68 0 0 Z " fill="#F6EFE0" transform="translate(274,242)"/>
<path d="M0 0 C4 0 4 0 6.375 1.9375 C15 11.28796729 15 11.28796729 15 16 C13.68 16 12.36 16 11 16 C10.67 15.34 10.34 14.68 10 14 C9.01 14 8.02 14 7 14 C7.33 12.02 7.66 10.04 8 8 C7.34 8 6.68 8 6 8 C5.67 10.64 5.34 13.28 5 16 C4.67 16 4.34 16 4 16 C3.67 12.04 3.34 8.08 3 4 C2.87882812 5.19238281 2.75765625 6.38476562 2.6328125 7.61328125 C2.46397327 9.17973408 2.29467868 10.74613788 2.125 12.3125 C2.04636719 13.09818359 1.96773438 13.88386719 1.88671875 14.69335938 C1.80292969 15.45068359 1.71914063 16.20800781 1.6328125 16.98828125 C1.55949707 17.68477783 1.48618164 18.38127441 1.41064453 19.09887695 C1 21 1 21 -1 24 C-0.67 16.08 -0.34 8.16 0 0 Z " fill="#FCEDD6" transform="translate(337,144)"/>
<path d="M0 0 C1.5 1.125 1.5 1.125 3 3 C3.1875 6.1875 3.1875 6.1875 3 9 C2.34 9 1.68 9 1 9 C0.67 9.99 0.34 10.98 0 12 C-3.17582631 13.58791315 -6.54161153 13.41019741 -10 13 C-12 11.625 -12 11.625 -13 10 C-13 9.34 -13 8.68 -13 8 C-12.39671875 7.75765625 -11.7934375 7.5153125 -11.171875 7.265625 C-6.70093996 5.39071676 -3.15166283 3.83680693 0 0 Z " fill="#F2EEDE" transform="translate(314,232)"/>
<path d="M0 0 C2.9375 0.8125 2.9375 0.8125 6 2 C6.33 2.99 6.66 3.98 7 5 C9.92914165 6.17082878 9.92914165 6.17082878 13 7 C13.66 7.33 14.32 7.66 15 8 C15 8.66 15 9.32 15 10 C15.53625 10.0825 16.0725 10.165 16.625 10.25 C19.94568746 11.29863814 22.28517358 12.82813886 25 15 C25.875 17.75 25.875 17.75 26 20 C27.32 19.67 28.64 19.34 30 19 C30 20.32 30 21.64 30 23 C25.30541929 21.43513976 21.73543073 18.86136776 17.8125 15.9375 C17.15628662 15.4523291 16.50007324 14.9671582 15.82397461 14.46728516 C10.26743156 10.30616509 4.88709544 5.94459068 0 1 C0 0.67 0 0.34 0 0 Z " fill="#B07E51" transform="translate(210,426)"/>
<path d="M0 0 C0.86625 0.639375 1.7325 1.27875 2.625 1.9375 C5.9598812 3.97548296 8.16047478 4.63433093 12 5 C12 7.31 12 9.62 12 12 C8 12 8 12 6.25 10.625 C3.0236066 8.29482699 -0.12218691 7.84019284 -4 7 C-3.6875 4.625 -3.6875 4.625 -3 2 C-2.01 1.34 -1.02 0.68 0 0 Z " fill="#F8EEDC" transform="translate(264,268)"/>
<path d="M0 0 C0.33 0 0.66 0 1 0 C1.66 3.63 2.32 7.26 3 11 C3.33 11 3.66 11 4 11 C4 16.94 4 22.88 4 29 C3.01 29.33 2.02 29.66 1 30 C-0.40912096 27.18175808 -0.11183553 24.82748718 -0.09765625 21.6796875 C-0.09443359 20.42285156 -0.09121094 19.16601562 -0.08789062 17.87109375 C-0.07951172 16.55238281 -0.07113281 15.23367188 -0.0625 13.875 C-0.05748489 12.53515789 -0.05292201 11.195314 -0.04882812 9.85546875 C-0.03701086 6.57026794 -0.02053617 3.28515603 0 0 Z " fill="#769B95" transform="translate(318,301)"/>
<path d="M0 0 C2 2 2 2 2.1953125 4.1640625 C2.17210937 4.97617187 2.14890625 5.78828125 2.125 6.625 C2.10695312 7.44226563 2.08890625 8.25953125 2.0703125 9.1015625 C2.03550781 10.04128906 2.03550781 10.04128906 2 11 C1.34 11 0.68 11 0 11 C0.99 13.97 1.98 16.94 3 20 C-0.65316671 18.75023244 -1.78065836 18.32901247 -4 15 C-4.71363933 8.93406572 -2.96534983 5.09669502 0 0 Z " fill="#EF643E" transform="translate(205,317)"/>
<path d="M0 0 C0.66 0.66 1.32 1.32 2 2 C2.66 1.34 3.32 0.68 4 0 C4 1.65 4 3.3 4 5 C4.66 5 5.32 5 6 5 C6.66 5.66 7.32 6.32 8 7 C9.32 6.34 10.64 5.68 12 5 C10.72431911 7.84574968 9.58503711 10.18089981 7 12 C4.2594821 11.86297411 2.50364651 11.28539969 0.125 9.9375 C-1.77229882 6.66992981 -0.65475809 3.63093124 0 0 Z " fill="#78A19B" transform="translate(307,328)"/>
<path d="M0 0 C0.99 0 1.98 0 3 0 C3 0.99 3 1.98 3 3 C3.66 3.66 4.32 4.32 5 5 C4.34 6.32 3.68 7.64 3 9 C-1.97093824 8.58846263 -6.44508386 8.20399168 -11 6 C-8.96804269 4.91145144 -7.20150212 4.04274287 -4.9375 3.5625 C-2.88408394 3.13508329 -2.88408394 3.13508329 -1.4375 1.4375 C-0.963125 0.963125 -0.48875 0.48875 0 0 Z " fill="#FBF3DE" transform="translate(259,408)"/>
<path d="M0 0 C1.32 0.33 2.64 0.66 4 1 C3.29843593 8.15595346 1.69214979 15.01855181 0 22 C-0.33 22 -0.66 22 -1 22 C-1.19601608 20.25093341 -1.38147403 18.50068154 -1.5625 16.75 C-1.66691406 15.77546875 -1.77132813 14.8009375 -1.87890625 13.796875 C-1.99166429 11.19252793 -1.69003873 9.47391662 -1 7 C-1 5.68 -1 4.36 -1 3 C-0.67 2.01 -0.34 1.02 0 0 Z " fill="#F7BA8D" transform="translate(332,170)"/>
<path d="M0 0 C1.32 0.33 2.64 0.66 4 1 C4 1.66 4 2.32 4 3 C5.98 3.66 7.96 4.32 10 5 C9.67 6.98 9.34 8.96 9 11 C6.625 11.1875 6.625 11.1875 4 11 C3.34 10.01 2.68 9.02 2 8 C2.99 8 3.98 8 5 8 C5 7.34 5 6.68 5 6 C3.35 6 1.7 6 0 6 C0 4.02 0 2.04 0 0 Z " fill="#F0B095" transform="translate(276,232)"/>
<path d="M0 0 C0.66 0.33 1.32 0.66 2 1 C1.34 1.66 0.68 2.32 0 3 C0 3.99 0 4.98 0 6 C-2.5 8.1875 -2.5 8.1875 -5 10 C-5.66 9.67 -6.32 9.34 -7 9 C-7.66 10.98 -8.32 12.96 -9 15 C-11.64 15 -14.28 15 -17 15 C-13.07052482 10.8085598 -8.72552841 7.31252078 -4.20703125 3.76953125 C-1.96559241 2.03849892 -1.96559241 2.03849892 0 0 Z " fill="#B58356" transform="translate(345,363)"/>
<path d="M0 0 C3.06475613 1.02158538 3.9927804 1.59465419 6 4 C8.69286108 9.61843855 9.33584807 14.84278535 9 21 C7.68 21.33 6.36 21.66 5 22 C4.96132813 20.74896484 4.96132813 20.74896484 4.921875 19.47265625 C4.55314542 12.15672623 3.5712507 6.42825125 0 0 Z " fill="#F1673F" transform="translate(312,199)"/>
<path d="M0 0 C2.98704569 0.49784095 4.39324263 1.26216175 7 3 C8.65549531 3.38499891 10.3222433 3.72793135 12 4 C12.33 2.68 12.66 1.36 13 0 C13 1.65 13 3.3 13 5 C12.39671875 5.13277344 11.7934375 5.26554687 11.171875 5.40234375 C10.37265625 5.57894531 9.5734375 5.75554687 8.75 5.9375 C7.56664062 6.19853516 7.56664062 6.19853516 6.359375 6.46484375 C4.84347261 6.80868254 3.33222604 7.17414968 1.828125 7.56640625 C0 8 0 8 -2 8 C-1.125 1.125 -1.125 1.125 0 0 Z " fill="#F9EDDA" transform="translate(284,328)"/>
<path d="M0 0 C1.65 0.33 3.3 0.66 5 1 C5.23340791 4.03430289 5.35218259 6.972281 5 10 C3.0625 12.25 3.0625 12.25 1 14 C0.20318682 16.64184541 0.20318682 16.64184541 0 19 C-1.65 19.33 -3.3 19.66 -5 20 C-4.67 19.34 -4.34 18.68 -4 18 C-3.01 18 -2.02 18 -1 18 C-1 15.36 -1 12.72 -1 10 C-0.01 9.67 0.98 9.34 2 9 C1.34 8.67 0.68 8.34 0 8 C0 5.36 0 2.72 0 0 Z " fill="#FAF6E2" transform="translate(258,256)"/>
<path d="M0 0 C0 2.83967231 -0.40267181 5.23735711 -1 8 C-1.66 8 -2.32 8 -3 8 C-3.20625 8.598125 -3.4125 9.19625 -3.625 9.8125 C-5 12 -5 12 -8.0625 13.5 C-11.14555162 14.66817455 -11.14555162 14.66817455 -11.875 17.1875 C-11.91625 17.785625 -11.9575 18.38375 -12 19 C-13.32 19 -14.64 19 -16 19 C-15.505 17.515 -15.505 17.515 -15 16 C-14.34 16 -13.68 16 -13 16 C-12.7628125 15.44570313 -12.525625 14.89140625 -12.28125 14.3203125 C-10.69547758 11.44851733 -8.71901908 9.28854348 -6.5 6.875 C-5.7059375 6.00617188 -4.911875 5.13734375 -4.09375 4.2421875 C-2.75256247 2.80591578 -1.38954317 1.38954317 0 0 Z " fill="#B8895E" transform="translate(378,328)"/>
<path d="M0 0 C1.258125 -0.04125 2.51625 -0.0825 3.8125 -0.125 C4.52019531 -0.14820313 5.22789062 -0.17140625 5.95703125 -0.1953125 C8 0 8 0 11 2 C11 2.66 11 3.32 11 4 C10.01 4.495 10.01 4.495 9 5 C8.67 5.99 8.34 6.98 8 8 C4.65902615 7.40339753 2.45699871 6.36924875 0 4 C0 2.68 0 1.36 0 0 Z " fill="#F4E9DB" transform="translate(280,227)"/>
<path d="M0 0 C0.33 1.32 0.66 2.64 1 4 C3.64 4.33 6.28 4.66 9 5 C9.33 5.99 9.66 6.98 10 8 C7.04335481 9.4783226 4.25770263 9.06032783 1 9 C0.67 8.34 0.34 7.68 0 7 C-2.12576782 6.53348793 -2.12576782 6.53348793 -4.5625 6.375 C-5.38878906 6.30023438 -6.21507812 6.22546875 -7.06640625 6.1484375 C-7.70449219 6.09945313 -8.34257812 6.05046875 -9 6 C-9 5.67 -9 5.34 -9 5 C-6.36 4.67 -3.72 4.34 -1 4 C-0.67 2.68 -0.34 1.36 0 0 Z " fill="#EF5D37" transform="translate(259,271)"/>
<path d="M0 0 C1.98 0.66 3.96 1.32 6 2 C5 5 5 5 3 6 C3.33 6.99 3.66 7.98 4 9 C4.99 8.67 5.98 8.34 7 8 C6.67 9.32 6.34 10.64 6 12 C3.36 11.01 0.72 10.02 -2 9 C-2.125 5.625 -2.125 5.625 -2 2 C-1.34 1.34 -0.68 0.68 0 0 Z " fill="#FAEBD6" transform="translate(274,242)"/>
<path d="M0 0 C2.64 0.33 5.28 0.66 8 1 C7.01 1.495 7.01 1.495 6 2 C6 2.66 6 3.32 6 4 C5.01 3.67 4.02 3.34 3 3 C3 4.65 3 6.3 3 8 C3.33 8 3.66 8 4 8 C4.12375 9.216875 4.2475 10.43375 4.375 11.6875 C4.78891306 15.06479059 5.54573451 17.89756695 7 21 C6.34 20.67 5.68 20.34 5 20 C5 19.34 5 18.68 5 18 C2.525 17.01 2.525 17.01 0 16 C0 10.72 0 5.44 0 0 Z " fill="#F3ECDE" transform="translate(320,208)"/>
<path d="M0 0 C5.75 0.875 5.75 0.875 8 2 C8 2.66 8 3.32 8 4 C9.65 3.67 11.3 3.34 13 3 C12.34 6.63 11.68 10.26 11 14 C10.34 14 9.68 14 9 14 C8.67 12.02 8.34 10.04 8 8 C6.35 7.67 4.7 7.34 3 7 C3 6.34 3 5.68 3 5 C3.99 5 4.98 5 6 5 C6 4.34 6 3.68 6 3 C4.02 2.34 2.04 1.68 0 1 C0 0.67 0 0.34 0 0 Z " fill="#F16544" transform="translate(274,252)"/>
<path d="M0 0 C0.66 0.33 1.32 0.66 2 1 C2.99 0.67 3.98 0.34 5 0 C2.7739726 6.33561644 2.7739726 6.33561644 0 8 C-2.76312116 7.9398132 -5.26265195 7.49362014 -8 7 C-6.74519472 3.23558416 -5.40450103 2.82680543 -2 1 C-1.34 0.67 -0.68 0.34 0 0 Z " fill="#719B97" transform="translate(312,222)"/>
<path d="M0 0 C0.66 0 1.32 0 2 0 C2 0.66 2 1.32 2 2 C2.66 2 3.32 2 4 2 C5.17154293 4.28929053 6.33738074 6.58118362 7.5 8.875 C7.83386719 9.52597656 8.16773438 10.17695313 8.51171875 10.84765625 C11 15.7734375 11 15.7734375 11 18 C10.01 18 9.02 18 8 18 C7.59007812 17.16855469 7.18015625 16.33710938 6.7578125 15.48046875 C6.21898437 14.39378906 5.68015625 13.30710938 5.125 12.1875 C4.59132813 11.10855469 4.05765625 10.02960938 3.5078125 8.91796875 C2.02778861 5.92161735 2.02778861 5.92161735 0 3 C0 2.01 0 1.02 0 0 Z " fill="#EBA572" transform="translate(360,128)"/>
<path d="M0 0 C1.24546405 2.49092811 0.7767578 3.41080733 0 6 C-0.66 6 -1.32 6 -2 6 C-2.268125 6.598125 -2.53625 7.19625 -2.8125 7.8125 C-4.04111253 10.07573361 -4.89031346 11.51540577 -7 13 C-9.6875 12.6875 -9.6875 12.6875 -12 12 C-10.33333333 10.33333333 -8.66666667 8.66666667 -7 7 C-6.278125 6.236875 -5.55625 5.47375 -4.8125 4.6875 C-3 3 -3 3 -1 3 C-0.67 2.01 -0.34 1.02 0 0 Z " fill="#F5E8D3" transform="translate(366,442)"/>
<path d="M0 0 C0.99 0.33 1.98 0.66 3 1 C4.89470816 1.0685495 6.7916834 1.08480372 8.6875 1.0625 C9.68136719 1.05347656 10.67523438 1.04445313 11.69921875 1.03515625 C12.45847656 1.02355469 13.21773438 1.01195312 14 1 C12.25 5.875 12.25 5.875 10 7 C7.6670134 7.04022391 5.33293334 7.04320247 3 7 C3.99 6.34 4.98 5.68 6 5 C4.35 4.67 2.7 4.34 1 4 C0.67 2.68 0.34 1.36 0 0 Z " fill="#F8EAD3" transform="translate(253,360)"/>
<path d="M0 0 C2.64 0.33 5.28 0.66 8 1 C8 1.66 8 2.32 8 3 C8.9075 3.12375 9.815 3.2475 10.75 3.375 C13.63679292 3.93015248 15.6125372 4.31993358 18 6 C18.75 8.125 18.75 8.125 19 10 C18.01 10 17.02 10 16 10 C16 9.34 16 8.68 16 8 C14.4221875 7.5978125 14.4221875 7.5978125 12.8125 7.1875 C9.39507415 6.12305588 7.00407554 4.86739831 4 3 C1.80869466 2.30420546 1.80869466 2.30420546 0 2 C0 1.34 0 0.68 0 0 Z " fill="#EBA471" transform="translate(296,112)"/>
<path d="M0 0 C1.03447266 0.27457031 1.03447266 0.27457031 2.08984375 0.5546875 C3.7596941 1.03745612 5.41346417 1.57532139 7.0625 2.125 C7.0625 3.445 7.0625 4.765 7.0625 6.125 C-0.04205764 5.45475871 -0.04205764 5.45475871 -2.9375 2.125 C-3.9275 2.125 -4.9175 2.125 -5.9375 2.125 C-5.9375 1.465 -5.9375 0.805 -5.9375 0.125 C-3.43105411 -1.12822294 -2.65203873 -0.72103846 0 0 Z " fill="#EC6141" transform="translate(261.9375,279.875)"/>
<path d="M0 0 C0.33 0 0.66 0 1 0 C1 2.64 1 5.28 1 8 C2.60875 7.87625 2.60875 7.87625 4.25 7.75 C8 8 8 8 10.4375 10 C11.2109375 10.99 11.2109375 10.99 12 12 C6.18918919 11.05405405 6.18918919 11.05405405 3.375 10.25 C0.89876661 9.73574648 0.89876661 9.73574648 -1.1875 11.4375 C-1.785625 11.953125 -2.38375 12.46875 -3 13 C-3.66 13 -4.32 13 -5 13 C-3.84826645 10.53199953 -2.95216435 8.95216435 -1 7 C-0.59952556 4.67724823 -0.2602896 2.34260643 0 0 Z " fill="#F59C85" transform="translate(263,259)"/>
<path d="M0 0 C2.01822917 0.06510417 4.03645833 0.13020833 6.0546875 0.1953125 C6.0546875 0.8553125 6.0546875 1.5153125 6.0546875 2.1953125 C4.59931182 3.03380054 3.14028377 3.86595184 1.6796875 4.6953125 C0.46152344 5.39140625 0.46152344 5.39140625 -0.78125 6.1015625 C-2.9453125 7.1953125 -2.9453125 7.1953125 -4.9453125 7.1953125 C-3.87057023 0.38861147 -3.87057023 0.38861147 0 0 Z " fill="#F2EBDC" transform="translate(305.9453125,229.8046875)"/>
<path d="M0 0 C0.99 0.495 0.99 0.495 2 1 C2 4.3 2 7.6 2 11 C2.66 11.33 3.32 11.66 4 12 C3.34 17.28 2.68 22.56 2 28 C1.67 28 1.34 28 1 28 C-0.12998844 18.65741704 -0.09908936 9.39146903 0 0 Z " fill="#E9E8D9" transform="translate(320,284)"/>
<path d="M0 0 C1.98 0 3.96 0 6 0 C6 2.31 6 4.62 6 7 C4.68 7 3.36 7 2 7 C0.1875 4.625 0.1875 4.625 -1 2 C-0.67 1.34 -0.34 0.68 0 0 Z " fill="#FAF4E6" transform="translate(270,273)"/>
<path d="M0 0 C0.66 0.33 1.32 0.66 2 1 C1.00404858 9.63157895 1.00404858 9.63157895 -1 12 C-4.5 12.6875 -4.5 12.6875 -8 13 C-8.99 13.495 -8.99 13.495 -10 14 C-10.33 12.68 -10.66 11.36 -11 10 C-9.68 10 -8.36 10 -7 10 C-4.99598989 9.69169075 -2.99488234 9.36270588 -1 9 C-0.67 6.03 -0.34 3.06 0 0 Z " fill="#F8C397" transform="translate(370,96)"/>
<path d="M0 0 C1.32 0.66 2.64 1.32 4 2 C2.68 2.33 1.36 2.66 0 3 C-0.103125 4.11375 -0.20625 5.2275 -0.3125 6.375 C-0.539375 7.57125 -0.76625 8.7675 -1 10 C-1.99 10.66 -2.98 11.32 -4 12 C-4 10.02 -4 8.04 -4 6 C-4.66 5.67 -5.32 5.34 -6 5 C-4.02 3.35 -2.04 1.7 0 0 Z " fill="#B37A4D" transform="translate(272,404)"/>
<path d="M0 0 C1.13308594 -0.00515625 2.26617187 -0.0103125 3.43359375 -0.015625 C6.39775691 0.23601432 8.06563671 0.70403059 10.5625 2.25 C10.2325 2.91 9.9025 3.57 9.5625 4.25 C8.88832031 4.09660156 8.21414062 3.94320313 7.51953125 3.78515625 C4.09372048 3.16516143 0.72356553 2.9147426 -2.75 2.6875 C-4.00425781 2.60371094 -5.25851563 2.51992188 -6.55078125 2.43359375 C-7.97970703 2.34271484 -7.97970703 2.34271484 -9.4375 2.25 C-5.87784019 -0.12310654 -4.21787776 -0.01915041 0 0 Z " fill="#B28055" transform="translate(203.4375,392.75)"/>
<path d="M0 0 C0.804375 0.495 0.804375 0.495 1.625 1 C4.5391061 2.22699204 6.86867708 2.14233286 10 2 C10 2.66 10 3.32 10 4 C9.34 4.66 8.68 5.32 8 6 C8 6.66 8 7.32 8 8 C4.08788267 6.84414715 1.1254959 5.64465038 -2 3 C-1.34 3 -0.68 3 0 3 C0 2.01 0 1.02 0 0 Z " fill="#F1603C" transform="translate(246,352)"/>
<path d="M0 0 C5.75 1.875 5.75 1.875 8 3 C6.25 8.75 6.25 8.75 4 11 C3.566875 9.576875 3.566875 9.576875 3.125 8.125 C2.23174891 4.94788422 2.23174891 4.94788422 0 3 C0 2.01 0 1.02 0 0 Z " fill="#F8F4E0" transform="translate(208,291)"/>
<path d="M0 0 C2.4375 1.375 2.4375 1.375 4 3 C4 3.66 4 4.32 4 5 C-1.94 4.01 -1.94 4.01 -8 3 C-8.33 3.99 -8.66 4.98 -9 6 C-9 5.01 -9 4.02 -9 3 C-9.66 2.67 -10.32 2.34 -11 2 C-7.35187527 -0.33479983 -4.25812212 -0.38018947 0 0 Z " fill="#F07C58" transform="translate(288,224)"/>
<path d="M0 0 C0.99386719 0.00902344 1.98773438 0.01804688 3.01171875 0.02734375 C4.15060547 0.04474609 4.15060547 0.04474609 5.3125 0.0625 C5.6425 0.7225 5.9725 1.3825 6.3125 2.0625 C3.3125 3.0625 3.3125 3.0625 0.3125 3.0625 C-0.3475 3.7225 -1.0075 4.3825 -1.6875 5.0625 C-2.6775 5.0625 -3.6675 5.0625 -4.6875 5.0625 C-5.0175 5.7225 -5.3475 6.3825 -5.6875 7.0625 C-5.3575 5.4125 -5.0275 3.7625 -4.6875 2.0625 C-6.0075 1.7325 -7.3275 1.4025 -8.6875 1.0625 C-5.53819107 0.01273036 -3.29935544 -0.03881595 0 0 Z " fill="#83A5A0" transform="translate(309.6875,220.9375)"/>
<path d="M0 0 C0.99 0.33 1.98 0.66 3 1 C2.54625 1.4125 2.0925 1.825 1.625 2.25 C-0.05950374 4.06408095 -0.99265971 5.75285627 -2 8 C-2.7425 7.95875 -3.485 7.9175 -4.25 7.875 C-7.08758952 8.00398134 -8.58773938 8.57051222 -11 10 C-7.5103248 6.40768729 -4.03355127 2.98132051 0 0 Z " fill="#F7EAD3" transform="translate(430,380)"/>
<path d="M0 0 C4.36628688 1.09157172 7.53375067 2.13137987 11 5 C12.31836295 5.69580267 13.64791086 6.37224433 15 7 C11.7169902 8.6415049 8.57454967 7.51888624 5 7 C4.67 6.01 4.34 5.02 4 4 C3.01 4 2.02 4 1 4 C0.67 2.68 0.34 1.36 0 0 Z " fill="#A97242" transform="translate(235,442)"/>
<path d="M0 0 C2.31 0.33 4.62 0.66 7 1 C6.34 1.66 5.68 2.32 5 3 C5.495 3.61875 5.99 4.2375 6.5 4.875 C8 7 8 7 8 9 C4.11980141 7.74155722 2.0588158 6.57583797 0 3 C0 2.01 0 1.02 0 0 Z " fill="#B58359" transform="translate(192,408)"/>
<path d="M0 0 C0.66 0 1.32 0 2 0 C4.45029331 5.71735105 5.33266291 9.79029227 5 16 C4.01 15.67 3.02 15.34 2 15 C2.66 15 3.32 15 4 15 C3.34 12.69 2.68 10.38 2 8 C1.34 8 0.68 8 0 8 C-0.98120464 4.94736336 -0.98120464 3.05263664 0 0 Z " fill="#F6BE94" transform="translate(378,168)"/>
<path d="M0 0 C1.4540625 0.0309375 1.4540625 0.0309375 2.9375 0.0625 C2.6075 1.0525 2.2775 2.0425 1.9375 3.0625 C2.5975 3.0625 3.2575 3.0625 3.9375 3.0625 C3.9375 4.0525 3.9375 5.0425 3.9375 6.0625 C1.6275 5.7325 -0.6825 5.4025 -3.0625 5.0625 C-3.625 3.125 -3.625 3.125 -4.0625 1.0625 C-3.0625 0.0625 -3.0625 0.0625 0 0 Z " fill="#FDF5E4" transform="translate(259.0625,288.9375)"/>
<path d="M0 0 C1.2065625 0.0309375 1.2065625 0.0309375 2.4375 0.0625 C1.4475 0.5575 1.4475 0.5575 0.4375 1.0625 C-1.36559076 5.75053598 -1.07677891 11.33037842 0.4375 16.0625 C-0.5525 15.7325 -1.5425 15.4025 -2.5625 15.0625 C-2.75640729 12.75052845 -2.94246367 10.4378971 -3.125 8.125 C-3.28162109 6.19333984 -3.28162109 6.19333984 -3.44140625 4.22265625 C-3.48136719 3.17980469 -3.52132812 2.13695312 -3.5625 1.0625 C-2.5625 0.0625 -2.5625 0.0625 0 0 Z " fill="#EF6138" transform="translate(255.5625,278.9375)"/>
<path d="M0 0 C4.54951717 1.2696327 7.40691022 2.97424018 11 6 C12.31138904 6.70885894 13.63777017 7.39456452 15 8 C15 8.66 15 9.32 15 10 C11.07685373 8.86664663 8.7958735 7.91236822 6 5 C4.02379014 3.95377125 2.0262871 2.94560065 0 2 C0 1.34 0 0.68 0 0 Z " fill="#905D32" transform="translate(210,424)"/>
<path d="M0 0 C3.34249629 0.59687434 5.46436342 1.73603877 8 4 C8 4.66 8 5.32 8 6 C7.01 6 6.02 6 5 6 C5 6.66 5 7.32 5 8 C2.525 7.01 2.525 7.01 0 6 C0 4.02 0 2.04 0 0 Z " fill="#F3A281" transform="translate(272,251)"/>
<path d="M0 0 C-0.66 0 -1.32 0 -2 0 C-2 0.66 -2 1.32 -2 2 C-3.32 1.67 -4.64 1.34 -6 1 C-6.33 1.99 -6.66 2.98 -7 4 C-8.98 4.33 -10.96 4.66 -13 5 C-12.67 3.68 -12.34 2.36 -12 1 C-3.96428571 -1.27678571 -3.96428571 -1.27678571 0 0 Z " fill="#EF6340" transform="translate(220,284)"/>
<path d="M0 0 C-0.33 1.98 -0.66 3.96 -1 6 C-3.31 6.33 -5.62 6.66 -8 7 C-6.47663111 3.31852519 -4.31953005 0 0 0 Z " fill="#F9F6E5" transform="translate(315,238)"/>
<path d="M0 0 C1.32 0.33 2.64 0.66 4 1 C4 1.66 4 2.32 4 3 C5.32 3.66 6.64 4.32 8 5 C8 5.33 8 5.66 8 6 C5.36 6 2.72 6 0 6 C0 4.02 0 2.04 0 0 Z " fill="#F8DFC8" transform="translate(276,232)"/>
<path d="M0 0 C3.5875213 1.33250791 6.8364623 2.830717 10 5 C10 5.66 10 6.32 10 7 C11.32 7.66 12.64 8.32 14 9 C13.01 9.33 12.02 9.66 11 10 C10.01 9.34 9.02 8.68 8 8 C8 7.34 8 6.68 8 6 C7.236875 5.71125 6.47375 5.4225 5.6875 5.125 C3 4 3 4 0 2 C0 1.34 0 0.68 0 0 Z " fill="#EBA572" transform="translate(344,97)"/>
<path d="M0 0 C0.80308594 0.09796875 1.60617188 0.1959375 2.43359375 0.296875 C3.64208984 0.42835938 3.64208984 0.42835938 4.875 0.5625 C5.53371094 0.72234375 6.19242188 0.8821875 6.87109375 1.046875 C7.20109375 1.706875 7.53109375 2.366875 7.87109375 3.046875 C5.24609375 4.234375 5.24609375 4.234375 1.87109375 5.046875 C-1.50390625 3.671875 -1.50390625 3.671875 -4.12890625 2.046875 C-2.12890625 0.046875 -2.12890625 0.046875 0 0 Z " fill="#B47F51" transform="translate(244.12890625,447.953125)"/>
<path d="M0 0 C4.76350585 0.71452588 9.34201396 1.79534844 14 3 C14 3.66 14 4.32 14 5 C8.67061191 4.66328485 4.37173367 4.384568 0 1 C0 0.67 0 0.34 0 0 Z " fill="#F55E39" transform="translate(208,337)"/>
<path d="M0 0 C0.33 0 0.66 0 1 0 C1 2.31 1 4.62 1 7 C-3.55384615 7.36923077 -3.55384615 7.36923077 -5.8125 5.5 C-6.204375 5.005 -6.59625 4.51 -7 4 C-6.34 4 -5.68 4 -5 4 C-5 3.34 -5 2.68 -5 2 C-3.68 2 -2.36 2 -1 2 C-0.67 1.34 -0.34 0.68 0 0 Z " fill="#F26741" transform="translate(295,325)"/>
<path d="M0 0 C0.66 1.32 1.32 2.64 2 4 C-3.00932754 7.00559652 -6.32723489 7.29341888 -12 7 C-12 6.67 -12 6.34 -12 6 C-10.7625 5.7525 -9.525 5.505 -8.25 5.25 C-4.48560327 4.3289242 -2.46922107 3.08652634 0 0 Z " fill="#7FA39C" transform="translate(318,239)"/>
<path d="M0 0 C0.33 0.66 0.66 1.32 1 2 C1.66 2 2.32 2 3 2 C3 4.64 3 7.28 3 10 C1.68 10.33 0.36 10.66 -1 11 C-1.0270043 9.54176788 -1.04639787 8.08339325 -1.0625 6.625 C-1.07410156 5.81289062 -1.08570313 5.00078125 -1.09765625 4.1640625 C-1 2 -1 2 0 0 Z " fill="#F57E5D" transform="translate(318,210)"/>
<path d="M0 0 C0.66 0 1.32 0 2 0 C1.39254603 4.85963179 -0.72758967 8.7405518 -3 13 C-3.93045933 10.44855176 -4.08564091 9.25993522 -3.22265625 6.640625 C-2.83980469 5.85171875 -2.45695312 5.0628125 -2.0625 4.25 C-1.68222656 3.45078125 -1.30195313 2.6515625 -0.91015625 1.828125 C-0.60980469 1.22484375 -0.30945313 0.6215625 0 0 Z " fill="#F55B3A" transform="translate(277,336)"/>
<path d="M0 0 C0.66 0.99 1.32 1.98 2 3 C0.3811004 4.03048037 -1.24532489 5.04914678 -2.875 6.0625 C-3.77992188 6.63097656 -4.68484375 7.19945312 -5.6171875 7.78515625 C-6.40351563 8.18605469 -7.18984375 8.58695312 -8 9 C-8.66 8.67 -9.32 8.34 -10 8 C-8.71064081 6.85157077 -7.41843421 5.70633773 -6.125 4.5625 C-5.04605469 3.60537109 -5.04605469 3.60537109 -3.9453125 2.62890625 C-2 1 -2 1 0 0 Z " fill="#B28159" transform="translate(390,319)"/>
<path d="M0 0 C1.32 0 2.64 0 4 0 C4.125 2.375 4.125 2.375 4 5 C3.34 5.66 2.68 6.32 2 7 C1.01 7 0.02 7 -1 7 C-0.67 4.69 -0.34 2.38 0 0 Z " fill="#FAF6E3" transform="translate(265,287)"/>
<path d="M0 0 C0.66 0.33 1.32 0.66 2 1 C2 2.98 2 4.96 2 7 C2.66 7.33 3.32 7.66 4 8 C4 10.97 4 13.94 4 17 C3.67 17 3.34 17 3 17 C3 14.36 3 11.72 3 9 C2.360625 8.773125 1.72125 8.54625 1.0625 8.3125 C-1 7 -1 7 -1.875 4.5 C-1.91625 3.675 -1.9575 2.85 -2 2 C-1.34 1.34 -0.68 0.68 0 0 Z " fill="#8CADA3" transform="translate(321,265)"/>
<path d="M0 0 C2.5625 0.1875 2.5625 0.1875 4.5625 2.1875 C7.13311311 2.83517793 7.13311311 2.83517793 9.5625 3.1875 C9.5625 4.1775 9.5625 5.1675 9.5625 6.1875 C-0.15178571 4.47321429 -0.15178571 4.47321429 -3.4375 1.1875 C-2.4375 0.1875 -2.4375 0.1875 0 0 Z " fill="#ED7852" transform="translate(275.4375,239.8125)"/>
<path d="M0 0 C0.33 1.32 0.66 2.64 1 4 C-4.625 7 -4.625 7 -8 7 C-8 6.01 -8 5.02 -8 4 C-5.36 2.68 -2.72 1.36 0 0 Z " fill="#ED6B48" transform="translate(309,233)"/>
<path d="M0 0 C2.64 0 5.28 0 8 0 C6.515 1.98 6.515 1.98 5 4 C6.32 3.67 7.64 3.34 9 3 C8.67 4.65 8.34 6.3 8 8 C6.85073734 7.04578192 5.70569459 6.08647955 4.5625 5.125 C3.92441406 4.59132813 3.28632812 4.05765625 2.62890625 3.5078125 C1 2 1 2 0 0 Z " fill="#FCECD5" transform="translate(110,0)"/>
<path d="M0 0 C0.99 0.66 1.98 1.32 3 2 C0.36 4.64 -2.28 7.28 -5 10 C-5.66 9.67 -6.32 9.34 -7 9 C-5.5920264 5.59739713 -3.97217821 4.10928776 -1 2 C-0.67 1.34 -0.34 0.68 0 0 Z " fill="#BA855C" transform="translate(407,396)"/>
<path d="M0 0 C2 2 2 2 2.125 5.125 C2.08375 6.07375 2.0425 7.0225 2 8 C1.34 8 0.68 8 0 8 C-0.33 8.66 -0.66 9.32 -1 10 C-0.67 8.35 -0.34 6.7 0 5 C-1.32 5.33 -2.64 5.66 -4 6 C-1.125 1.125 -1.125 1.125 0 0 Z " fill="#EAEDE1" transform="translate(315,233)"/>
<path d="M0 0 C10.55808656 0.77904328 10.55808656 0.77904328 15 3 C12 5 12 5 9.58984375 4.609375 C8.71457031 4.32578125 7.83929687 4.0421875 6.9375 3.75 C6.05964844 3.47671875 5.18179688 3.2034375 4.27734375 2.921875 C2 2 2 2 0 0 Z " fill="#B48259" transform="translate(544,409)"/>
<path d="M0 0 C-0.33 0.99 -0.66 1.98 -1 3 C-4.3 3 -7.6 3 -11 3 C-4.95121951 -1.53658537 -4.95121951 -1.53658537 0 0 Z " fill="#B68558" transform="translate(406,314)"/>
<path d="M0 0 C0.33 1.32 0.66 2.64 1 4 C-1.64 4.33 -4.28 4.66 -7 5 C-7 5.66 -7 6.32 -7 7 C-7.99 6.67 -8.98 6.34 -10 6 C-10 5.01 -10 4.02 -10 3 C-8.35 3 -6.7 3 -5 3 C-5 2.34 -5 1.68 -5 1 C-3.35 1.33 -1.7 1.66 0 2 C0 1.34 0 0.68 0 0 Z " fill="#F8E8D0" transform="translate(282,260)"/>
<path d="M0 0 C0.99 0.33 1.98 0.66 3 1 C3 2.98 3 4.96 3 7 C3.99 7 4.98 7 6 7 C6.33 8.98 6.66 10.96 7 13 C2.18602057 8.94612259 1.11458074 5.9782058 0 0 Z " fill="#85A197" transform="translate(285,249)"/>
<path d="M0 0 C2.77461108 2.85526838 3.96319878 4.28655817 4.171875 8.33203125 C4.03265625 9.48058594 3.8934375 10.62914062 3.75 11.8125 C3.62109375 12.97394531 3.4921875 14.13539063 3.359375 15.33203125 C3.24078125 16.21246094 3.1221875 17.09289062 3 18 C2.67 18 2.34 18 2 18 C1.92652344 16.91332031 1.92652344 16.91332031 1.8515625 15.8046875 C1.44793848 10.58541133 0.98724193 5.90186342 -1 1 C-0.67 0.67 -0.34 0.34 0 0 Z " fill="#E3EADC" transform="translate(331,231)"/>
<path d="M0 0 C2.64 0.33 5.28 0.66 8 1 C7.01 1.495 7.01 1.495 6 2 C6 2.66 6 3.32 6 4 C5.01 3.67 4.02 3.34 3 3 C2.67 5.31 2.34 7.62 2 10 C1.67 10 1.34 10 1 10 C0.67 6.7 0.34 3.4 0 0 Z " fill="#FBF0D6" transform="translate(320,208)"/>
<path d="M0 0 C0.33 0 0.66 0 1 0 C1 1.98 1 3.96 1 6 C2.11375 5.938125 3.2275 5.87625 4.375 5.8125 C6.169375 5.9053125 6.169375 5.9053125 8 6 C8.99 7.485 8.99 7.485 10 9 C6.7 8.67 3.4 8.34 0 8 C0 5.36 0 2.72 0 0 Z " fill="#F05E31" transform="translate(264,259)"/>
<path d="M0 0 C1.67542976 0.28604898 3.34385343 0.61781233 5 1 C4.01 2.485 4.01 2.485 3 4 C2.60612212 6.32387947 2.26513915 8.65793749 2 11 C1.67 11 1.34 11 1 11 C0.7834375 9.63875 0.7834375 9.63875 0.5625 8.25 C0.07533901 5.13728293 0.07533901 5.13728293 -0.625 2.6875 C-0.74875 2.130625 -0.8725 1.57375 -1 1 C-0.67 0.67 -0.34 0.34 0 0 Z " fill="#F6EAD4" transform="translate(187,395)"/>
<path d="M0 0 C0.99 0.66 1.98 1.32 3 2 C0.69 4.64 -1.62 7.28 -4 10 C-5 6 -5 6 -4.00390625 4.296875 C-2.66927083 2.86458333 -1.33463542 1.43229167 0 0 Z " fill="#F9EDD7" transform="translate(359,345)"/>
<path d="M0 0 C0.66 0.66 1.32 1.32 2 2 C1.525625 2.391875 1.05125 2.78375 0.5625 3.1875 C-1.35179633 5.40808374 -1.61266988 7.13375709 -2 10 C-3.65 10.33 -5.3 10.66 -7 11 C-6.67 10.34 -6.34 9.68 -6 9 C-5.01 9 -4.02 9 -3 9 C-3 6.36 -3 3.72 -3 1 C-2.01 0.67 -1.02 0.34 0 0 Z " fill="#FBE1C9" transform="translate(260,265)"/>
<path d="M0 0 C0.33 0 0.66 0 1 0 C1 3.96 1 7.92 1 12 C-0.32 11.67 -1.64 11.34 -3 11 C-2.01 7.37 -1.02 3.74 0 0 Z " fill="#FAE6CF" transform="translate(311,184)"/>
<path d="M0 0 C0.33 0 0.66 0 1 0 C1.33 2.31 1.66 4.62 2 7 C-1.72433382 5.7874262 -5.37802806 4.49140021 -9 3 C-5.67465243 1.89155081 -3.37817425 2.15545644 0 3 C0 2.01 0 1.02 0 0 Z " fill="#FDEED6" transform="translate(332,73)"/>
<path d="M0 0 C3.465 1.98 3.465 1.98 7 4 C5.125 5.0625 5.125 5.0625 3 6 C2.34 5.67 1.68 5.34 1 5 C1 4.34 1 3.68 1 3 C0.01 2.67 -0.98 2.34 -2 2 C-1.34 1.34 -0.68 0.68 0 0 Z " fill="#F9EED9" transform="translate(228,442)"/>
<path d="M0 0 C1.485 0.99 1.485 0.99 3 2 C4.32 1.34 5.64 0.68 7 0 C5.71700242 2.86207152 4.469364 5.0245088 2 7 C1.01 7 0.02 7 -1 7 C-1 6.34 -1 5.68 -1 5 C-0.34 5 0.32 5 1 5 C0.67 3.35 0.34 1.7 0 0 Z " fill="#85A49D" transform="translate(312,333)"/>
<path d="M0 0 C0.33 0.66 0.66 1.32 1 2 C0.67 2.99 0.34 3.98 0 5 C0.66 5 1.32 5 2 5 C2.33 3.68 2.66 2.36 3 1 C3.88293714 3.64881141 4 5.25192182 4 8 C2.35 8 0.7 8 -1 8 C-1.04241723 5.66705225 -1.04092937 3.33297433 -1 1 C-0.67 0.67 -0.34 0.34 0 0 Z " fill="#FEE9D4" transform="translate(267,257)"/>
<path d="M0 0 C1.1446875 0.3403125 1.1446875 0.3403125 2.3125 0.6875 C-2.4375 5.5625 -2.4375 5.5625 -4.6875 6.6875 C-5.375 4.875 -5.375 4.875 -5.6875 2.6875 C-3.97309355 -0.07459928 -3.26180423 -0.37927956 0 0 Z " fill="#F8EDD9" transform="translate(338.6875,366.3125)"/>
<path d="M0 0 C0.33 0.66 0.66 1.32 1 2 C1.66 2 2.32 2 3 2 C3 4.64 3 7.28 3 10 C2.01 10 1.02 10 0 10 C0 6.7 0 3.4 0 0 Z " fill="#EEEEDC" transform="translate(300,278)"/>
<path d="M0 0 C2 3 2 3 2 6 C1.01 6.33 0.02 6.66 -1 7 C-1.268125 6.38125 -1.53625 5.7625 -1.8125 5.125 C-2.95556848 2.7004767 -2.95556848 2.7004767 -6 1 C-4.02 0.67 -2.04 0.34 0 0 Z " fill="#82A49E" transform="translate(302,265)"/>
<path d="M0 0 C0.66 0.66 1.32 1.32 2 2 C1.9765625 4.3828125 1.9765625 4.3828125 1.625 7.125 C1.51414062 8.03507813 1.40328125 8.94515625 1.2890625 9.8828125 C1.19367188 10.58148438 1.09828125 11.28015625 1 12 C0.01 11.34 -0.98 10.68 -2 10 C-2 8.68 -2 7.36 -2 6 C-1.34 6 -0.68 6 0 6 C0 4.02 0 2.04 0 0 Z " fill="#7AA29C" transform="translate(331,236)"/>
<path d="M0 0 C0 3.99904969 -1.72586967 5.80200422 -4 9 C-4.99 8.67 -5.98 8.34 -7 8 C-5.61918777 3.8575633 -3.40174442 2.67796901 0 0 Z " fill="#FAE3D0" transform="translate(314,232)"/>
<path d="M0 0 C5.61 0.66 11.22 1.32 17 2 C17 2.33 17 2.66 17 3 C11.72 3 6.44 3 1 3 C0.67 2.01 0.34 1.02 0 0 Z " fill="#F8FBEA" transform="translate(296,218)"/>
<path d="M0 0 C0.66 0.33 1.32 0.66 2 1 C1.125 5.75 1.125 5.75 0 8 C-0.66 8 -1.32 8 -2 8 C-2.33 6.35 -2.66 4.7 -3 3 C-2.01 2.67 -1.02 2.34 0 2 C0 1.34 0 0.68 0 0 Z " fill="#F7BC8F" transform="translate(388,138)"/>
<path d="M0 0 C0.33 0.99 0.66 1.98 1 3 C-5.75 2.25 -5.75 2.25 -8 0 C-4.99727245 -0.96516243 -2.95784231 -1.22393475 0 0 Z " fill="#F2E6D0" transform="translate(256,413)"/>
<path d="M0 0 C0.33 0 0.66 0 1 0 C1 1.65 1 3.3 1 5 C-2.3 5.66 -5.6 6.32 -9 7 C-8.67 5.35 -8.34 3.7 -8 2 C-5.36 2.66 -2.72 3.32 0 4 C0 2.68 0 1.36 0 0 Z " fill="#F9DFCA" transform="translate(296,328)"/>
<path d="M0 0 C3.63 0 7.26 0 11 0 C11.33 0.99 11.66 1.98 12 3 C7.18550592 2.51855059 4.39828259 2.1991413 0 0 Z " fill="#F4E3CB" transform="translate(554,325)"/>
<path d="M0 0 C0.99 0.33 1.98 0.66 3 1 C3 2.32 3 3.64 3 5 C1.125 5.625 1.125 5.625 -1 6 C-1.66 5.34 -2.32 4.68 -3 4 C-2.01 2.68 -1.02 1.36 0 0 Z " fill="#FDEAD8" transform="translate(284,266)"/>
<path d="M0 0 C5.75 1.75 5.75 1.75 8 4 C6.68 4.99 5.36 5.98 4 7 C3.566875 6.0409375 3.566875 6.0409375 3.125 5.0625 C2.17176549 2.84793921 2.17176549 2.84793921 0 2 C0 1.34 0 0.68 0 0 Z " fill="#FCF3D9" transform="translate(264,206)"/>
<path d="M0 0 C1.98 0.495 1.98 0.495 4 1 C4.25 7.625 4.25 7.625 2 11 C1.01 10.67 0.02 10.34 -1 10 C-0.34 10 0.32 10 1 10 C1.33 7.69 1.66 5.38 2 3 C1.34 2.67 0.68 2.34 0 2 C0 1.34 0 0.68 0 0 Z " fill="#FCEED4" transform="translate(387,136)"/>
<path d="M0 0 C2.86724686 0.57344937 3.8614515 0.8614515 6 3 C3.36 3.66 0.72 4.32 -2 5 C-1.34 3.35 -0.68 1.7 0 0 Z " fill="#FAECD6" transform="translate(290,393)"/>
<path d="M0 0 C0.33 0.66 0.66 1.32 1 2 C5.64586892 1.51515724 5.64586892 1.51515724 10 0 C10 1.65 10 3.3 10 5 C6.7 4.34 3.4 3.68 0 3 C0 2.01 0 1.02 0 0 Z " fill="#FBDFC3" transform="translate(260,272)"/>
<path d="M0 0 C2.31 0.33 4.62 0.66 7 1 C4.60490662 3.89932357 2.68754757 4.50168276 -1 5 C-0.67 3.35 -0.34 1.7 0 0 Z " fill="#F6E6D0" transform="translate(302,232)"/>
<path d="M0 0 C3.3 0.99 6.6 1.98 10 3 C10 3.33 10 3.66 10 4 C2.25 4.125 2.25 4.125 0 3 C0 2.01 0 1.02 0 0 Z " fill="#FBF0DA" transform="translate(584,426)"/>
<path d="M0 0 C-0.33 1.32 -0.66 2.64 -1 4 C-2.65 4 -4.3 4 -6 4 C-6.33 4.66 -6.66 5.32 -7 6 C-7.66 5.34 -8.32 4.68 -9 4 C-2.25 0 -2.25 0 0 0 Z " fill="#B5875F" transform="translate(315,387)"/>
<path d="M0 0 C2.31 0.33 4.62 0.66 7 1 C6.67 1.99 6.34 2.98 6 4 C4.02 4.33 2.04 4.66 0 5 C0 3.35 0 1.7 0 0 Z " fill="#F8EDD6" transform="translate(459,378)"/>
<path d="M0 0 C-1.0975223 2.99324263 -1.67682892 3.84610901 -4.625 5.25 C-5.40875 5.4975 -6.1925 5.745 -7 6 C-6.75 4.125 -6.75 4.125 -6 2 C-3.85331506 0.61504198 -2.56128588 0 0 0 Z " fill="#F9EED9" transform="translate(325,378)"/>
<path d="M0 0 C0.99 0.33 1.98 0.66 3 1 C2.67 1.66 2.34 2.32 2 3 C1.34 3 0.68 3 0 3 C-0.66 5.31 -1.32 7.62 -2 10 C-2.33 10 -2.66 10 -3 10 C-3.36923077 3.47692308 -3.36923077 3.47692308 -1.5 1.0625 C-1.005 0.711875 -0.51 0.36125 0 0 Z " fill="#FAD7BA" transform="translate(257,281)"/>
<path d="M0 0 C2.31 0.33 4.62 0.66 7 1 C7.33 2.32 7.66 3.64 8 5 C2.25 3.375 2.25 3.375 0 0 Z " fill="#F9C19D" transform="translate(204,176)"/>
<path d="M0 0 C-0.99 0.66 -1.98 1.32 -3 2 C-2.67 2.66 -2.34 3.32 -2 4 C-2.99 4 -3.98 4 -5 4 C-5 3.34 -5 2.68 -5 2 C-7.64 2 -10.28 2 -13 2 C-13 1.67 -13 1.34 -13 1 C-8.62426048 0.40667939 -4.42471556 -0.13827236 0 0 Z " fill="#97663D" transform="translate(301,449)"/>
<path d="M0 0 C2.64 1.98 5.28 3.96 8 6 C6.68 6.33 5.36 6.66 4 7 C1.03460313 4.91323924 0.92341871 3.69367485 0 0 Z " fill="#F8EAD2" transform="translate(217,433)"/>
<path d="M0 0 C0.66 0 1.32 0 2 0 C2 1.65 2 3.3 2 5 C1.01 5.495 1.01 5.495 0 6 C0 5.34 0 4.68 0 4 C-2.475 3.01 -2.475 3.01 -5 2 C-4.360625 1.855625 -3.72125 1.71125 -3.0625 1.5625 C-1.02454854 1.18992819 -1.02454854 1.18992819 0 0 Z " fill="#B58357" transform="translate(205,416)"/>
<path d="M0 0 C2.64 0 5.28 0 8 0 C8 0.99 8 1.98 8 3 C2.25 2.25 2.25 2.25 0 0 Z " fill="#F5EBD2" transform="translate(238,409)"/>
<path d="M0 0 C2.475 0.495 2.475 0.495 5 1 C5 1.66 5 2.32 5 3 C5.66 3.33 6.32 3.66 7 4 C4.69 4 2.38 4 0 4 C0 2.68 0 1.36 0 0 Z " fill="#B27F57" transform="translate(214,395)"/>
<path d="M0 0 C5.75 1.75 5.75 1.75 8 4 C4.37673261 5.2077558 3.35853631 4.54311128 0 3 C0 2.01 0 1.02 0 0 Z " fill="#FAEAD7" transform="translate(208,291)"/>
<path d="M0 0 C-5.75 4 -5.75 4 -8 4 C-8 3.34 -8 2.68 -8 2 C-8.99 1.67 -9.98 1.34 -11 1 C-3.375 -1.125 -3.375 -1.125 0 0 Z " fill="#F07956" transform="translate(232,281)"/>
<path d="M0 0 C0 3 0 3 -1 6 C-1.99 6 -2.98 6 -4 6 C-4 7.65 -4 9.3 -4 11 C-4.33 11 -4.66 11 -5 11 C-5.3125 8.3125 -5.3125 8.3125 -5 5 C-2.5 2.125 -2.5 2.125 0 0 Z " fill="#DBE4D7" transform="translate(327,261)"/>
<path d="M0 0 C2.91517292 1.07401108 4.77810176 1.77810176 7 4 C5.02 4.33 3.04 4.66 1 5 C0.67 3.35 0.34 1.7 0 0 Z " fill="#F8EED9" transform="translate(257,459)"/>
<path d="M0 0 C1.98 0.66 3.96 1.32 6 2 C6.33 3.65 6.66 5.3 7 7 C5.83040013 6.02433888 4.66438823 5.044375 3.5 4.0625 C2.8503125 3.51722656 2.200625 2.97195313 1.53125 2.41015625 C1.0259375 1.94480469 0.520625 1.47945313 0 1 C0 0.67 0 0.34 0 0 Z " fill="#B38B65" transform="translate(210,426)"/>
<path d="M0 0 C0 0.66 0 1.32 0 2 C-2.35438733 3.42944945 -3.48032433 4.08661261 -6.25 3.625 C-6.8275 3.41875 -7.405 3.2125 -8 3 C-3.375 0 -3.375 0 0 0 Z " fill="#885932" transform="translate(306,426)"/>
<path d="M0 0 C-0.33 1.65 -0.66 3.3 -1 5 C-2.65 4.67 -4.3 4.34 -6 4 C-2.25 0 -2.25 0 0 0 Z " fill="#B68152" transform="translate(480,379)"/>
<path d="M0 0 C1.2077558 3.62326739 0.54311128 4.64146369 -1 8 C-1.66 7.67 -2.32 7.34 -3 7 C-3 5.02 -3 3.04 -3 1 C-2.01 1.495 -2.01 1.495 -1 2 C-0.67 1.34 -0.34 0.68 0 0 Z " fill="#FBE9D8" transform="translate(279,281)"/>
<path d="M0 0 C2.475 0.99 2.475 0.99 5 2 C4.01 2.495 4.01 2.495 3 3 C3 3.66 3 4.32 3 5 C1.35 5 -0.3 5 -2 5 C-1.34 4.34 -0.68 3.68 0 3 C0 2.01 0 1.02 0 0 Z " fill="#FAECD6" transform="translate(259,283)"/>
<path d="M0 0 C2 2 2 2 2 6 C0.68 5.67 -0.64 5.34 -2 5 C-1.125 1.125 -1.125 1.125 0 0 Z " fill="#EFF0DD" transform="translate(300,270)"/>
<path d="M0 0 C0.99 0 1.98 0 3 0 C2.690625 0.598125 2.38125 1.19625 2.0625 1.8125 C0.89790296 4.08956772 0.89790296 4.08956772 0 7 C-0.66 7 -1.32 7 -2 7 C-1.125 1.125 -1.125 1.125 0 0 Z " fill="#F9F3E4" transform="translate(269,255)"/>
<path d="M0 0 C2.475 0.495 2.475 0.495 5 1 C5.33 1.99 5.66 2.98 6 4 C5.01 4.495 5.01 4.495 4 5 C2 3.625 2 3.625 0 2 C0 1.34 0 0.68 0 0 Z " fill="#F8E7CB" transform="translate(280,229)"/>
<path d="M0 0 C1.125 1.5 1.125 1.5 2 4 C1.57598348 6.7773082 0.81108065 9.29639783 0 12 C-0.33 12 -0.66 12 -1 12 C-1.14285714 3.42857143 -1.14285714 3.42857143 0 0 Z " fill="#FEEBD2" transform="translate(332,188)"/>
<path d="M0 0 C3.63 0 7.26 0 11 0 C11 0.33 11 0.66 11 1 C7.97265625 1.24414062 7.97265625 1.24414062 4.9453125 1.48828125 C2.60480784 1.87393036 2.60480784 1.87393036 1 5 C0.67 3.35 0.34 1.7 0 0 Z " fill="#FEEACF" transform="translate(373,149)"/>
<path d="M0 0 C-1.45255699 3.82946843 -3.42895561 5.12050295 -7 7 C-3.86206897 0 -3.86206897 0 0 0 Z " fill="#FDE7C9" transform="translate(269,134)"/>
<path d="M0 0 C1.08667969 0.29197266 1.08667969 0.29197266 2.1953125 0.58984375 C2.74960937 0.74582031 3.30390625 0.90179688 3.875 1.0625 C1.895 2.0525 1.895 2.0525 -0.125 3.0625 C-0.125 2.4025 -0.125 1.7425 -0.125 1.0625 C-2.105 1.3925 -4.085 1.7225 -6.125 2.0625 C-6.125 1.4025 -6.125 0.7425 -6.125 0.0625 C-3.57797384 -1.21101308 -2.6967055 -0.73941925 0 0 Z " fill="#F7BB8B" transform="translate(342.125,83.9375)"/>
<path d="M0 0 C2.375 0.3125 2.375 0.3125 5 1 C5.66 1.99 6.32 2.98 7 4 C4.03 3.505 4.03 3.505 1 3 C0.67 2.01 0.34 1.02 0 0 Z " fill="#F9CAAE" transform="translate(261,280)"/>
<path d="M0 0 C1.98 0 3.96 0 6 0 C5.67 1.32 5.34 2.64 5 4 C1.125 2.25 1.125 2.25 0 0 Z " fill="#F8ECCF" transform="translate(270,277)"/>
<path d="M0 0 C0.99 0.495 0.99 0.495 2 1 C2.99 0.67 3.98 0.34 5 0 C3.92598892 2.91517292 3.22189824 4.77810176 1 7 C0.67 4.69 0.34 2.38 0 0 Z " fill="#7F9587" transform="translate(312,222)"/>
<path d="M0 0 C0.33 1.32 0.66 2.64 1 4 C-1.64 3.34 -4.28 2.68 -7 2 C-7 1.67 -7 1.34 -7 1 C-3.535 0.505 -3.535 0.505 0 0 Z " fill="#F4B98D" transform="translate(231,185)"/>
</svg>
