<?xml version="1.0" standalone="no"?> <!DOCTYPE svg PUBLIC "-//W3C//DTD SVG 20010904//EN" "http://www.w3.org/TR/2001/REC-SVG-20010904/DTD/svg10.dtd"> <svg version="1.0" xmlns="http://www.w3.org/2000/svg" width="600.000000pt" height="600.000000pt" viewBox="0 0 600.000000 600.000000" preserveAspectRatio="xMidYMid meet"> <g transform="translate(0.000000,600.000000) scale(0.066667,-0.066667)" fill="#4e7a27" stroke="none"> <path d="M6223 6550 c-242 -82 -436 -317 -560 -677 l-47 -135 -89 -49 c-191 -104 -152 -100 -1087 -109 l-847 -7 -5 -42 c-4 -32 -13 -41 -40 -41 -28 0 -37 9 -41 41 l-4 42 -188 0 -187 0 -5 -42 -5 -41 -966 0 -965 0 -24 -33 c-33 -48 -33 -306 0 -354 22 -31 34 -33 210 -33 l187 0 0 -82 0 -81 -56 -5 -56 -4 0 -330 0 -330 93 -5 94 -4 0 90 0 91 98 0 97 0 0 -90 0 -90 98 0 97 0 0 210 0 210 98 0 97 0 0 -210 0 -210 98 0 97 0 0 120 0 120 99 0 100 0 -7 -120 -7 -120 87 0 c114 0 112 -8 103 360 l-7 308 -49 4 c-49 5 -49 5 -49 86 l0 82 217 0 216 0 5 -41 5 -41 187 0 188 0 4 41 c4 32 13 41 40 41 28 0 37 -9 41 -41 l5 -41 847 -8 848 -7 99 -39 c196 -77 231 -106 266 -220 213 -698 778 -949 1188 -528 83 85 184 236 218 323 l24 62 127 8 c318 20 583 271 635 600 61 394 -242 778 -635 802 l-128 8 -30 73 c-160 385 -516 595 -829 488z m369 -513 c255 -66 470 -275 553 -535 8 -23 13 -24 51 -4 138 72 312 -22 343 -186 32 -167 -150 -321 -312 -265 -85 30 -80 32 -101 -41 -159 -533 -942 -681 -1313 -248 -499 583 41 1471 779 1279z m-4177 -880 c19 -21 27 -42 19 -56 -14 -30 -12 -190 3 -246 22 -80 -45 -81 -148 -3 -132 101 -210 99 -350 -9 -135 -104 -192 -93 -146 28 20 52 24 91 16 170 -14 151 -18 149 306 149 258 0 270 -1 300 -33z"/> <path d="M6207 5911 c-488 -156 -628 -766 -256 -1113 387 -362 1015 -139 1100 390 74 460 -399 865 -844 723z m395 -387 c212 -209 232 -247 147 -279 l-46 -17 10 -115 c8 -91 5 -124 -14 -161 l-25 -47 -275 0 c-332 0 -315 -10 -319 193 -3 124 -7 143 -30 146 -38 6 -67 50 -51 79 18 33 383 392 399 392 6 0 99 -86 204 -191z"/> <path d="M6292 5230 c-5 -11 -6 -67 -4 -124 l5 -103 105 0 105 0 0 120 0 120 -102 4 c-76 3 -103 -1 -109 -17z"/> <path d="M1308 3330 c0 -169 4 -210 21 -210 16 0 21 24 21 98 l0 97 143 0 142 0 0 -97 c0 -77 5 -98 23 -98 18 0 22 33 22 210 0 177 -4 210 -22 210 -18 0 -23 -20 -23 -94 l0 -93 -139 1 -138 2 -5 92 c-3 66 -10 92 -25 92 -16 0 -20 -42 -20 -210z"/> <path d="M1860 3507 c-142 -95 -128 -303 24 -366 210 -88 389 173 229 333 -74 74 -174 87 -253 33z m193 -33 c83 -43 103 -171 39 -247 -124 -148 -358 7 -270 178 45 86 141 115 231 69z"/> <path d="M2250 3330 c0 -177 4 -210 23 -210 18 0 22 27 23 154 l1 154 77 -154 c43 -85 83 -154 89 -154 7 0 45 66 86 146 l74 147 1 -147 c1 -119 5 -146 24 -146 18 0 22 33 22 210 0 129 -6 210 -15 210 -8 0 -55 -79 -103 -176 l-88 -176 -88 176 c-116 232 -126 230 -126 -34z"/> <path d="M2760 3330 l0 -210 180 0 c150 0 180 4 180 23 0 18 -27 22 -157 22 l-158 0 0 75 0 75 106 0 c79 0 105 5 100 19 -5 13 -36 17 -106 13 l-100 -5 0 77 0 76 158 0 c130 0 157 4 157 23 0 18 -30 22 -180 22 l-180 0 0 -210z"/> <path d="M3224 3521 c-115 -88 -50 -206 114 -206 98 0 157 -28 157 -74 0 -82 -209 -112 -267 -38 -31 38 -63 49 -63 21 0 -122 317 -145 359 -26 33 96 -14 141 -164 154 -140 12 -188 58 -126 119 52 53 261 23 261 -37 0 -8 7 -14 15 -14 26 0 16 59 -15 90 -35 35 -229 43 -271 11z"/> <path d="M3694 3511 c-132 -81 -126 -282 12 -360 183 -103 380 103 274 287 -55 95 -192 130 -286 73z m200 -44 c66 -40 90 -107 67 -183 -46 -155 -274 -155 -316 0 -40 151 114 265 249 183z"/> <path d="M4088 3335 c1 -268 34 -305 40 -45 l5 171 142 -169 c184 -219 180 -220 180 38 0 175 -4 210 -22 210 -18 0 -23 -32 -26 -167 l-4 -167 -141 167 c-179 213 -175 214 -174 -38z"/> <path d="M4545 3345 c0 -107 -2 -200 -4 -206 -8 -26 191 -20 243 7 219 113 122 394 -136 394 l-103 0 0 -195z m253 112 c131 -111 42 -292 -144 -292 l-79 0 0 165 0 165 89 0 c73 0 97 -7 134 -38z"/> <path d="M4980 3330 l0 -210 189 0 c249 0 263 35 16 42 l-160 4 0 75 0 74 106 0 c79 0 105 5 100 19 -5 13 -37 17 -106 14 l-100 -4 0 75 0 75 160 4 c247 7 233 42 -16 42 l-189 0 0 -210z"/> <path d="M5430 3330 c0 -177 4 -210 23 -210 18 0 22 27 23 154 l1 154 77 -154 c43 -85 83 -154 89 -154 7 0 45 66 86 146 l74 147 1 -147 c1 -119 5 -146 24 -146 18 0 22 33 22 210 0 129 -6 210 -15 210 -8 0 -55 -79 -103 -176 l-88 -176 -88 176 c-116 232 -126 230 -126 -34z"/> <path d="M6033 3348 c-44 -105 -83 -199 -88 -209 -5 -11 2 -19 17 -19 14 0 31 19 40 45 22 64 229 71 252 9 15 -38 43 -62 56 -49 14 14 -162 415 -181 415 -9 -1 -52 -87 -96 -192z m145 16 c19 -48 38 -93 41 -101 4 -10 -28 -14 -84 -10 -49 2 -90 7 -90 10 0 16 80 187 88 187 5 0 25 -39 45 -86z"/> <path d="M6405 3330 c0 -175 4 -210 22 -210 18 0 23 32 26 168 l5 167 140 -167 c78 -93 147 -168 154 -168 7 0 13 95 13 210 0 178 -3 210 -23 210 -19 0 -21 -23 -13 -165 6 -95 5 -165 -3 -165 -7 1 -74 75 -148 165 -176 212 -173 213 -173 -45z"/> <path d="M6855 3330 l0 -210 101 0 c131 0 195 32 241 121 84 162 -23 299 -233 299 l-109 0 0 -210z m240 146 c166 -82 80 -311 -116 -311 l-79 0 0 165 0 165 79 0 c43 0 95 -9 116 -19z"/> <path d="M3937 2894 c-12 -20 -4 -179 10 -188 7 -4 13 13 13 37 0 43 3 46 71 50 73 5 107 50 67 90 -18 18 -151 27 -161 11z m140 -48 c4 -21 -6 -26 -56 -26 -52 0 -61 5 -61 31 0 41 109 37 117 -5z"/> <path d="M4166 2900 c-21 -6 -26 -24 -26 -104 0 -64 5 -94 16 -88 8 5 13 24 11 42 -7 51 43 49 87 -5 46 -53 65 -51 29 4 -21 33 -22 38 -1 46 23 9 32 78 12 90 -22 12 -102 22 -128 15z m114 -41 c12 -31 -3 -39 -67 -39 -47 0 -56 5 -54 30 3 37 107 44 121 9z"/> <path d="M4350 2805 c0 -59 6 -103 13 -99 17 11 18 186 1 197 -8 5 -14 -36 -14 -98z"/> <path d="M4417 2878 c13 -68 68 -184 81 -169 22 25 79 174 70 183 -4 4 -23 -27 -41 -70 l-33 -78 -42 87 c-23 48 -39 69 -35 47z"/> <path d="M4686 2893 c-4 -7 10 -13 31 -13 37 0 38 -3 38 -90 0 -50 7 -90 15 -90 8 0 15 40 15 90 0 88 1 90 40 90 68 0 29 15 -53 21 -43 3 -81 -1 -86 -8z"/> <path d="M4890 2801 l0 -101 83 0 c45 0 82 7 82 15 0 8 -34 15 -75 15 -65 0 -75 4 -75 30 0 24 10 30 53 30 32 0 50 6 45 15 -6 8 -30 15 -54 15 -34 0 -44 7 -44 30 0 26 10 30 75 30 43 0 75 7 75 16 0 10 -32 14 -82 11 l-83 -4 0 -102z"/> <path d="M4572 2801 c-36 -87 -43 -140 -10 -82 9 15 32 26 58 26 26 0 49 -11 58 -26 35 -62 29 0 -7 84 -49 114 -52 114 -99 -2z m60 -38 c-43 -8 -50 6 -27 53 l19 42 19 -45 c18 -42 17 -46 -11 -50z"/> <path d="M3840 2429 c0 -61 6 -102 14 -97 8 5 11 25 7 46 -10 54 56 51 97 -4 16 -23 35 -36 41 -30 6 6 -2 25 -18 42 -26 30 -26 32 -2 46 71 40 22 103 -80 103 l-59 0 0 -106z m140 55 c12 -31 -3 -39 -67 -39 -48 0 -58 5 -58 30 0 37 111 45 125 9z"/> <path d="M4050 2438 l0 -98 86 3 87 3 -79 5 c-92 6 -123 64 -35 64 24 0 48 7 54 15 5 9 -13 15 -45 15 -43 0 -53 6 -53 30 0 26 10 30 75 30 41 0 75 7 75 15 0 8 -37 15 -82 15 l-83 0 0 -97z"/> <path d="M4245 2438 c0 -55 7 -98 15 -98 8 0 15 32 16 71 l0 72 63 -72 c81 -92 86 -90 86 27 0 55 -7 97 -15 97 -8 0 -15 -35 -15 -77 l0 -77 -63 77 c-80 99 -87 97 -87 -20z"/> <path d="M4455 2520 c0 -8 17 -15 38 -15 35 0 37 -4 37 -92 0 -51 5 -88 10 -83 6 6 9 47 7 93 -4 79 -3 82 34 82 22 0 39 7 39 15 0 8 -37 15 -82 15 -46 0 -83 -7 -83 -15z"/> <path d="M4642 2464 c-14 -39 -33 -80 -41 -91 -9 -10 -10 -24 -4 -30 7 -6 15 -2 19 8 4 11 32 19 64 19 32 0 60 -8 64 -19 4 -10 11 -15 16 -10 12 10 -65 194 -80 194 -6 0 -23 -32 -38 -71z m53 -3 c0 -7 4 -24 9 -37 7 -17 0 -24 -22 -24 -33 0 -38 11 -23 51 10 26 36 33 36 10z"/> <path d="M4803 2434 l5 -101 81 4 c106 5 119 18 18 18 l-77 0 0 90 c0 53 -7 90 -16 90 -9 0 -14 -38 -11 -101z"/> <path d="M4998 2517 c-42 -42 12 -102 90 -102 46 0 58 -35 18 -51 -38 -14 -62 -11 -86 14 -13 12 -27 16 -31 9 -15 -23 33 -50 87 -50 67 0 84 11 84 56 0 37 -16 45 -105 55 -21 3 -37 14 -37 27 0 29 96 40 113 13 16 -26 35 -6 24 24 -11 28 -130 32 -157 5z"/> </g> </svg>